<?xml version="1.0" encoding="UTF-8"?>
<svg version="1.1" xmlns="http://www.w3.org/2000/svg" width="1365" height="768">
<path d="M0 0 C34.98 0 69.96 0 106 0 C108.95961753 30.1468018 111.9178765 60.2897193 114.54556274 90.46710205 C114.76399372 92.97532503 114.98384697 95.48342458 115.20516968 97.99139404 C115.51388076 101.49908229 115.81655288 105.00723639 116.1171875 108.515625 C116.20751755 109.53598846 116.2978476 110.55635193 116.39091492 111.6076355 C116.9079187 117.75476125 117.1073232 123.83181833 117 130 C112.96194134 128.63733356 110.45631882 126.8590849 107.375 123.9375 C103.91579043 120.73339438 100.41723434 117.65157731 96.75 114.6875 C91.81970834 110.69730632 87.00374858 106.59036624 82.20117188 102.44873047 C78.59491196 99.34619895 74.94827767 96.3055976 71.25 93.3125 C66.86848205 89.75732096 62.68289319 86.03230463 58.51171875 82.234375 C55.11542494 79.21309963 51.5840702 76.37424067 48.05078125 73.515625 C44.47943376 70.57074948 40.9878836 67.54279913 37.5 64.5 C32.35203546 60.01148546 27.14096821 55.62621489 21.83203125 51.328125 C17.78591903 48.00194171 13.82020343 44.58439102 9.85717773 41.15991211 C9.29844971 40.6778833 8.73972168 40.19585449 8.1640625 39.69921875 C7.67373535 39.27471436 7.1834082 38.85020996 6.67822266 38.4128418 C4.48614736 36.56740396 2.23754478 34.79003583 0 33 C0 22.11 0 11.22 0 0 Z " fill="#000000" transform="translate(0,0)"/>
<path d="M0 0 C35.97 0 71.94 0 109 0 C108.67 1.98 108.34 3.96 108 6 C109.06645115 7.29633621 109.06645115 7.29633621 111.5625 7.0625 C112.366875 7.041875 113.17125 7.02125 114 7 C114.93423645 3.98968256 115.04449911 3.13349732 114 0 C491.52 0 869.04 0 1258 0 C1258 253.44 1258 506.88 1258 768 C925.03 768 592.06 768 249 768 C250.95621327 760.1751469 252.94505891 752.52364405 255.4375 744.875 C255.72431641 743.94429687 256.01113281 743.01359375 256.30664062 742.0546875 C256.59603516 741.1678125 256.88542969 740.2809375 257.18359375 739.3671875 C257.56342407 738.17778564 257.56342407 738.17778564 257.95092773 736.96435547 C259.24771525 734.53616082 260.47435135 733.97338963 263 733 C263.042721 731.33388095 263.04063832 729.66617115 263 728 C261.93354885 726.70366379 261.93354885 726.70366379 259.4375 726.9375 C258.2309375 726.9684375 258.2309375 726.9684375 257 727 C256.72349609 728.55847656 256.72349609 728.55847656 256.44140625 730.1484375 C255.05136614 734.95742074 251.93980995 736.90272732 247.9375 739.625 C246.48820431 740.65170197 245.0403367 741.68042217 243.59375 742.7109375 C242.8409375 743.24170898 242.088125 743.77248047 241.3125 744.31933594 C238.95106656 746.03556353 236.67623134 747.82890267 234.40625 749.6640625 C233.65867432 750.2626709 232.91109863 750.8612793 232.14086914 751.47802734 C230.70095784 752.63601917 229.26997102 753.80522053 227.84936523 754.98681641 C223.34488035 758.55384745 220.90016692 759.32410405 215 759 C212.735616 761.69155201 212.735616 761.69155201 213.25 764.0625 C213.92532718 766.19476975 213.92532718 766.19476975 216 768 C183.7703532 768.45693075 151.54163323 768.81053425 119.30950102 769.02130659 C115.49840226 769.04631867 111.6873099 769.07220531 107.8762207 769.09863281 C106.73821254 769.10650213 106.73821254 769.10650213 105.57721431 769.11453041 C93.31611173 769.20139825 81.05689764 769.35899303 68.7969129 769.54305592 C56.20297029 769.73054588 43.61001177 769.84126913 31.01473099 769.8817699 C23.2506297 769.90912483 15.49186573 769.9952556 7.72940958 770.15832934 C1.76153357 770.27726291 -4.20182199 770.28899805 -10.17101669 770.26215363 C-12.60807333 770.26762974 -15.04534274 770.30707855 -17.48118782 770.3841095 C-35.33714238 770.9208045 -35.33714238 770.9208045 -41.41253543 766.0762167 C-45.85639665 761.38541399 -49.23565437 756.1555772 -52.45901954 750.5791831 C-54.92405974 746.45337476 -57.8139305 742.65873714 -60.6875 738.8125 C-65.33717366 732.37503574 -69.91402955 725.88618184 -74.48339844 719.39160156 C-79.69539089 711.99228113 -85.00044763 704.66110744 -90.31054688 697.33203125 C-93.27210799 693.24404978 -96.23008133 689.15347878 -99.1875 685.0625 C-99.74042725 684.29881104 -100.29335449 683.53512207 -100.86303711 682.74829102 C-101.37616455 682.03858154 -101.88929199 681.32887207 -102.41796875 680.59765625 C-102.86938232 679.97383057 -103.3207959 679.35000488 -103.78588867 678.70727539 C-106.15837456 675.37110128 -107.24998955 673.59825635 -107.24839699 669.52370578 C-107.25289158 668.59957689 -107.25738617 667.675448 -107.26201695 666.72331521 C-107.25676292 665.70441517 -107.2515089 664.68551513 -107.24609566 663.63573933 C-107.24840335 662.55171864 -107.25071103 661.46769794 -107.25308865 660.35082814 C-107.25842539 656.68127902 -107.24937412 653.01190183 -107.24050903 649.34236145 C-107.24138035 646.69989548 -107.2430453 644.05744093 -107.24568737 641.41497725 C-107.24984179 635.65067614 -107.2465355 629.88641624 -107.23841095 624.1221199 C-107.22636344 615.55076832 -107.22573724 606.97944283 -107.22749493 598.40808432 C-107.23012567 583.99118807 -107.22342876 569.57431012 -107.21146011 555.1574192 C-107.19963584 540.87790652 -107.1919302 526.59840144 -107.18975449 512.3188839 C-107.18961701 511.43182818 -107.18947953 510.54477246 -107.18933788 509.63083626 C-107.18866124 505.1261344 -107.18805846 500.62143253 -107.18748413 496.11673065 C-107.18328061 464.18987579 -107.16979836 432.26303089 -107.15087891 400.33618164 C-107.13251733 369.31502333 -107.11834654 338.29386774 -107.10986328 307.27270508 C-107.10960023 306.31690387 -107.10933718 305.36110267 -107.10906615 304.37633779 C-107.10642917 294.77800072 -107.10387753 285.17966363 -107.10138843 275.58132651 C-107.09631568 256.02749939 -107.09067317 236.47367245 -107.08468628 216.91984558 C-107.0844117 216.02074454 -107.08413712 215.1216435 -107.08385422 214.19529697 C-107.06544538 154.13019383 -107.03375411 94.06509624 -107 34 C-105.72832614 34.94257391 -104.4582012 35.88723776 -103.1887207 36.83276367 C-102.48125198 37.35859543 -101.77378326 37.88442719 -101.0448761 38.42619324 C-98.25632336 40.57235904 -95.74726884 42.89593501 -93.1875 45.3125 C-88.57361426 49.61621468 -83.82050507 53.66784721 -78.90625 57.62890625 C-75.6000167 60.32633046 -72.35862758 63.09134939 -69.125 65.875 C-64.59969981 69.76976599 -60.06312802 73.64959972 -55.5 77.5 C-50.93686945 81.35040241 -46.40052099 85.23048847 -41.875 89.125 C-36.92608466 93.38085061 -31.91166982 97.54229156 -26.84375 101.65625 C-23.52313433 104.39302116 -20.25955586 107.19105572 -17 110 C-12.70757545 113.69852993 -8.38883518 117.35368214 -4 120.9375 C-2.68902344 122.01451172 -2.68902344 122.01451172 -1.3515625 123.11328125 C0.06424069 124.24921637 1.50166629 125.35989104 2.9765625 126.41796875 C6.18639678 128.76829764 6.96133718 129.83154056 7.875 133.8125 C7.91625 134.864375 7.9575 135.91625 8 137 C9.84725052 137.69159401 9.84725052 137.69159401 12 138 C12.99 137.34 13.98 136.68 15 136 C15.58402133 133.58582128 15.58402133 133.58582128 15 131 C14.0350914 130.21690964 14.0350914 130.21690964 13.0506897 129.41799927 C9.98921848 125.8081722 10.09704209 122.29859945 9.75146484 117.68701172 C9.62373436 116.27111504 9.62373436 116.27111504 9.49342346 114.82661438 C9.21534177 111.69554241 8.96307465 108.56294686 8.7109375 105.4296875 C8.52120493 103.23311216 8.32990514 101.03667168 8.13711548 98.84036255 C7.63195633 93.03521864 7.14874554 87.22844383 6.66986084 81.42108154 C6.18668603 75.61028186 5.68206673 69.80135232 5.1796875 63.9921875 C3.3449488 42.66907261 1.64151647 21.33971409 0 0 Z M8 7 C7.34 7.66 6.68 8.32 6 9 C6.3185177 11.10820797 6.3185177 11.10820797 7 13 C8.89179203 13.6814823 8.89179203 13.6814823 11 14 C11.66 13.34 12.32 12.68 13 12 C12.6814823 9.89179203 12.6814823 9.89179203 12 8 C10.10820797 7.3185177 10.10820797 7.3185177 8 7 Z M1013 36 C1013.66 37.32 1014.32 38.64 1015 40 C1015.66 39.01 1016.32 38.02 1017 37 C1015.68 36.67 1014.36 36.34 1013 36 Z M838 37 C838 37.99 838 38.98 838 40 C838.99 39.67 839.98 39.34 841 39 C840.67 38.34 840.34 37.68 840 37 C839.34 37 838.68 37 838 37 Z M588.1875 56.6875 C586.7126313 58.97933501 586.7126313 58.97933501 587.5 61.6875 C588.2425 62.8321875 588.2425 62.8321875 589 64 C590.66500443 64.34153937 592.33178677 64.67449498 594 65 C595.8125 67.5625 595.8125 67.5625 597 70 C597.33 69.34 597.66 68.68 598 68 C597.67 67.21625 597.34 66.4325 597 65.625 C596 63 596 63 596.625 60.9375 C596.74875 60.298125 596.8725 59.65875 597 59 C595.33333333 56.66666667 595.33333333 56.66666667 593 55 C589.95320505 54.65929074 589.95320505 54.65929074 588.1875 56.6875 Z M108 63 C107.01 63.495 107.01 63.495 106 64 C106 65.65 106 67.3 106 69 C107.65 69 109.3 69 111 69 C111 67.35 111 65.7 111 64 C110.01 63.67 109.02 63.34 108 63 Z M598 70 C599 72 599 72 599 72 Z M485 71 C485 71.66 485 72.32 485 73 C485.66 73 486.32 73 487 73 C487 72.34 487 71.68 487 71 C486.34 71 485.68 71 485 71 Z M599 72 C600 74 600 74 600 74 Z M600 74 C600.66 75.65 601.32 77.3 602 79 C602.33 78.34 602.66 77.68 603 77 C602.01 76.01 601.02 75.02 600 74 Z M603 79 C604 81 604 81 604 81 Z M604 81 C605.09068668 84.77545388 605.9083091 87.47043472 609 90 C607.90931332 86.22454612 607.0916909 83.52956528 604 81 Z M688 87 C687.34 88.32 686.68 89.64 686 91 C686.99 91.99 687.98 92.98 689 94 C690.32 93.34 691.64 92.68 693 92 C692.67 90.35 692.34 88.7 692 87 C690.68 87 689.36 87 688 87 Z M609 90 C610.09068668 93.77545388 610.9083091 96.47043472 614 99 C612.90931332 95.22454612 612.0916909 92.52956528 609 90 Z M1060 91 C1060 91.99 1060 92.98 1060 94 C1060.99 94 1061.98 94 1063 94 C1063 93.01 1063 92.02 1063 91 C1062.01 91 1061.02 91 1060 91 Z M782 94 C781.401875 94.928125 780.80375 95.85625 780.1875 96.8125 C777.42289986 100.84091735 775.51935348 101.43560841 771 103 C771.99 103.33 772.98 103.66 774 104 C774.66 103.67 775.32 103.34 776 103 C778.56845219 102.96962979 781.120762 103.06688815 783.6875 103.16015625 C786.19709447 103.24061362 786.19709447 103.24061362 788 101 C788.33333333 98.5 788.33333333 98.5 788 96 C787.34 95.34 786.68 94.68 786 94 C784.68 94 783.36 94 782 94 Z M614 99 C614.60183749 101.02045442 615.27306096 103.02111039 616 105 C616.66 105.33 617.32 105.66 618 106 C617.39816251 103.97954558 616.72693904 101.97888961 616 100 C615.34 99.67 614.68 99.34 614 99 Z M761.78515625 106.1328125 C760.86868568 106.48338211 760.86868568 106.48338211 759.93370056 106.84103394 C757.97316039 107.59367719 756.0179729 108.35930133 754.0625 109.125 C752.78091322 109.6180052 751.49901477 110.11020103 750.21679688 110.6015625 C743.24867044 113.28513004 736.35467278 116.08920358 729.54101562 119.14941406 C725.71368342 120.43058484 722.91635745 119.71206499 719 119 C716.80588748 119.94208091 716.80588748 119.94208091 716 122 C716.24205349 125.31818985 716.24205349 125.31818985 718 128 C720.41482413 128.50059916 720.41482413 128.50059916 723 128 C723.4343335 127.22188965 723.86866699 126.4437793 724.31616211 125.64208984 C726.4022298 122.36886605 727.98247807 121.74843767 731.56640625 120.3515625 C732.68426514 119.90659424 733.80212402 119.46162598 734.95385742 119.00317383 C736.14470947 118.54837646 737.33556152 118.0935791 738.5625 117.625 C739.77075439 117.14893311 740.97900879 116.67286621 742.22387695 116.18237305 C745.81018015 114.77296613 749.40426263 113.38512642 753 112 C754.93027363 111.24498637 756.86002061 110.4886239 758.7890625 109.73046875 C762.85292047 108.13647738 766.92348745 106.56133095 771 105 C767.06070392 103.68690131 765.62675401 104.64711171 761.78515625 106.1328125 Z M618 106 C616.27485509 110.06817428 616.27485509 110.06817428 616.62890625 114.32421875 C617.1463333 118.05514008 615.82176336 119.87998402 614 123.125 C612.25312249 126.15210892 612.25312249 126.15210892 611 129 C611.33 129.99 611.66 130.98 612 132 C612.51949219 130.94039062 613.03898438 129.88078125 613.57421875 128.7890625 C614.27781993 127.40062283 614.98229292 126.01262471 615.6875 124.625 C616.19700195 123.57699219 616.19700195 123.57699219 616.71679688 122.5078125 C619.39345768 117.30458402 619.39345768 117.30458402 622.70703125 115.640625 C623.84205078 115.32351562 623.84205078 115.32351562 625 115 C626.16666667 113.16666667 626.16666667 113.16666667 626 111 C624.97098426 108.7109211 624.97098426 108.7109211 623 107 C620.40144267 106.1957792 620.40144267 106.1957792 618 106 Z M988 128 C988.32198966 131.09926819 988.32198966 131.09926819 989 134 C992.99634276 134.89181529 992.99634276 134.89181529 997 134.5 C999.82727879 133.7931803 1002.18003568 134.42318912 1005 135 C1002.61426621 133.10786631 1000.92824652 131.97608217 998 131 C997.54625 130.154375 997.0925 129.30875 996.625 128.4375 C996.08875 127.633125 995.5525 126.82875 995 126 C991.51380126 125.40479534 990.53629248 125.46370752 988 128 Z M610 132 C611 134 611 134 611 134 Z M609 134 C610 136 610 136 610 136 Z M1005 135 C1008.59613657 138.59613657 1013.81107984 139.74053316 1018.52172852 141.47827148 C1020.43082378 142.18502843 1022.33351973 142.90737399 1024.23632812 143.63085938 C1026.03553711 144.29891602 1026.03553711 144.29891602 1027.87109375 144.98046875 C1028.97380615 145.39192139 1030.07651855 145.80337402 1031.21264648 146.22729492 C1034.05055127 147.29324366 1034.05055127 147.29324366 1037 146 C1032.92730877 144.4270566 1028.85217757 142.86066424 1024.7746582 141.30029297 C1023.38790087 140.76855937 1022.00182615 140.23504198 1020.61645508 139.69970703 C1018.62497922 138.93051643 1016.63113631 138.16777516 1014.63671875 137.40625 C1013.43748779 136.94541016 1012.23825684 136.48457031 1011.00268555 136.00976562 C1008.05406749 134.84062664 1008.05406749 134.84062664 1005 135 Z M608 136 C609 138 609 138 609 138 Z M607 138 C608 140 608 140 608 140 Z M606 140 C607 142 607 142 607 142 Z M605 142 C606 144 606 144 606 144 Z M604 144 C605 146 605 146 605 146 Z M603 146 C604 148 604 148 604 148 Z M1037 147 C1039.5654594 149.5654594 1041.47686668 149.54046087 1045 150 C1042.4345406 147.4345406 1040.52313332 147.45953913 1037 147 Z M602 148 C603 150 603 150 603 150 Z M601 150 C602 152 602 152 602 152 Z M1045 150 C1047.2192744 152.2192744 1048.50906279 152.63308388 1051.46484375 153.55078125 C1052.34720703 153.83759766 1053.22957031 154.12441406 1054.13867188 154.41992188 C1055.99764372 155.01276914 1057.85964975 155.59618868 1059.72460938 156.16992188 C1066.57741788 158.42420097 1066.57741788 158.42420097 1069.00390625 161.73046875 C1069.33261719 162.47941406 1069.66132812 163.22835937 1070 164 C1070.66 164 1071.32 164 1072 164 C1071.88724731 164.60943451 1071.77449463 165.21886902 1071.6583252 165.84677124 C1070.48834504 172.17251996 1069.32083767 178.49872144 1068.15478516 184.82519531 C1067.71890046 187.18826895 1067.28237886 189.5512252 1066.84521484 191.9140625 C1066.21806246 195.30438287 1065.59317894 198.69511461 1064.96875 202.0859375 C1064.77188599 203.14743011 1064.57502197 204.20892273 1064.37219238 205.30258179 C1064.19200562 206.28344757 1064.01181885 207.26431335 1063.82617188 208.27490234 C1063.66628784 209.14094086 1063.50640381 210.00697937 1063.3416748 210.89926147 C1062.94648814 212.97428618 1062.94648814 212.97428618 1063 215 C1062.360625 215.226875 1061.72125 215.45375 1061.0625 215.6875 C1058.77905218 216.85338976 1058.77905218 216.85338976 1058.0625 219.4375 C1057.7624009 222.00887626 1057.7624009 222.00887626 1059.1875 223.875 C1060.93918567 225.21421786 1060.93918567 225.21421786 1063.0625 224.8125 C1065.18712526 224.06529664 1065.18712526 224.06529664 1067 222 C1066.71281674 220.3247643 1066.36871088 218.65919896 1066 217 C1065.77271831 211.54523945 1066.44922807 206.57658319 1067.4609375 201.25 C1067.61156647 200.43305664 1067.76219543 199.61611328 1067.91738892 198.77441406 C1068.23557395 197.05608768 1068.55678162 195.33831851 1068.88085938 193.62109375 C1069.37327882 191.00912973 1069.85536328 188.3954165 1070.3359375 185.78125 C1070.64782832 184.10405327 1070.96030874 182.42696605 1071.2734375 180.75 C1071.41623138 179.97688477 1071.55902527 179.20376953 1071.70614624 178.40722656 C1072.57130143 173.84849789 1073.65801281 169.44244036 1075 165 C1075.78375 165.804375 1076.5675 166.60875 1077.375 167.4375 C1079.71982856 169.98690417 1079.71982856 169.98690417 1082 171 C1081.71125 170.443125 1081.4225 169.88625 1081.125 169.3125 C1079.14291842 165.23822119 1077.86400821 161.44347078 1077 157 C1075.95509265 155.7321044 1075.95509265 155.7321044 1073.625 155.875 C1070.88906952 155.88656262 1070.88906952 155.88656262 1068 157 C1065.87109375 156.47094727 1065.87109375 156.47094727 1063.4375 155.56640625 C1062.55835938 155.24736328 1061.67921875 154.92832031 1060.7734375 154.59960938 C1059.85820313 154.25736328 1058.94296875 153.91511719 1058 153.5625 C1056.18904011 152.89295497 1054.37659584 152.22740745 1052.5625 151.56640625 C1051.75941406 151.26677979 1050.95632813 150.96715332 1050.12890625 150.65844727 C1047.89372643 149.8522605 1047.89372643 149.8522605 1045 150 Z M600 152 C599.73770599 152.54457352 599.47541199 153.08914703 599.20516968 153.65022278 C596.46875585 159.32234262 593.70696225 164.98157187 590.93017578 170.6340332 C589.89758227 172.74444684 588.87147728 174.85804821 587.85205078 176.97485352 C586.38452186 180.01922584 584.89394531 183.0513248 583.3984375 186.08203125 C582.94818207 187.02899368 582.49792664 187.97595612 582.0340271 188.95161438 C579.42584465 194.17200876 577.72720141 196.91964101 572 199 C570.37968479 200.82029908 570.37968479 200.82029908 570 203 C570.78309467 205.23470405 570.78309467 205.23470405 572 207 C574.83073436 207.50169415 574.83073436 207.50169415 578 207 C578.4640625 206.13375 578.928125 205.2675 579.40625 204.375 C582.71377276 199.01414935 589.2398481 197.10732649 594.75 194.625 C595.92433594 194.07972656 597.09867188 193.53445312 598.30859375 192.97265625 C601.19910543 191.63315084 604.09589531 190.30970673 607 189 C603.02675511 187.67558504 601.94265538 188.70336258 598.23828125 190.52734375 C597.12001953 191.07197266 596.00175781 191.61660156 594.84960938 192.17773438 C593.68236328 192.75845703 592.51511719 193.33917969 591.3125 193.9375 C590.13365234 194.51435547 588.95480469 195.09121094 587.74023438 195.68554688 C584.82237779 197.11494221 581.90934798 198.55338558 579 200 C580.60043818 196.62322046 582.2057778 193.24879377 583.8125 189.875 C584.30008789 188.84922852 584.78767578 187.82345703 585.29003906 186.76660156 C587.86727707 181.36973656 590.48828419 176.00285145 593.21484375 170.6796875 C593.72362061 169.68340332 594.23239746 168.68711914 594.7565918 167.66064453 C595.74042267 165.74316346 596.73258707 163.8299319 597.73364258 161.92138672 C598.17732178 161.05529785 598.62100098 160.18920898 599.078125 159.296875 C599.47418945 158.53729492 599.87025391 157.77771484 600.27832031 156.99511719 C601.29109631 154.83984068 601.29109631 154.83984068 600 152 Z M937 158 C935.70366379 159.06645115 935.70366379 159.06645115 935.9375 161.5625 C935.958125 162.366875 935.97875 163.17125 936 164 C938.39719432 164.67958603 938.39719432 164.67958603 941 165 C941.66 164.34 942.32 163.68 943 163 C942.6814823 160.89179203 942.6814823 160.89179203 942 159 C940.34385343 158.61781233 938.67542976 158.28604898 937 158 Z M650 162 C650 163.32 650 164.64 650 166 C648.24357178 166.84763916 648.24357178 166.84763916 646.45166016 167.71240234 C642.11482552 169.80667875 637.78065082 171.90640917 633.44726562 174.0078125 C631.57005968 174.91718562 629.69213211 175.82507068 627.81347656 176.73144531 C625.11593354 178.03321634 622.42101637 179.34028683 619.7265625 180.6484375 C618.88380768 181.05371674 618.04105286 181.45899597 617.17276001 181.8765564 C616.39210175 182.25679962 615.61144348 182.63704285 614.80712891 183.02880859 C614.11873932 183.36190033 613.43034973 183.69499207 612.72109985 184.03817749 C610.82085139 184.99760922 610.82085139 184.99760922 609 187 C613.81009738 186.37381618 617.60715947 184.36735598 621.86328125 182.18359375 C623.40530908 181.41153014 624.94763633 180.64006432 626.49023438 179.86914062 C628.90286978 178.65558624 631.31277646 177.4373587 633.7175293 176.20825195 C636.05085032 175.0189924 638.39352961 173.85011854 640.73828125 172.68359375 C641.44688797 172.31487656 642.15549469 171.94615936 642.88557434 171.56626892 C647.89370442 169.09783798 651.44449589 168.83800675 657 169 C659.2491908 167.17296773 659.2491908 167.17296773 659.25 164.5 C659.2491908 161.82703227 659.2491908 161.82703227 657 160 C653.0325491 159.56530472 653.0325491 159.56530472 650 162 Z M307 163 C304.61933257 165.74591757 304.61933257 165.74591757 303.8515625 169.203125 C302.50026828 173.64132068 299.20520738 176.02996629 295.8125 179.0625 C295.15185547 179.67416016 294.49121094 180.28582031 293.81054688 180.91601562 C283.65976361 190.18499343 283.65976361 190.18499343 277 190 C274.71399972 192.70332305 274.71399972 192.70332305 275.3125 195.125 C275.84578486 196.98593853 275.84578486 196.98593853 277 198 C276.92383106 208.1022095 274.89910987 218.05404726 273.05859375 227.94921875 C272.76793177 229.53999056 272.47790961 231.1308794 272.18849182 232.72187805 C271.43304188 236.86648925 270.67004317 241.00967168 269.9050293 245.15252686 C268.67533108 251.82002765 267.45798079 258.48979713 266.23942757 265.15934181 C265.8138431 267.48305703 265.38539361 269.80622923 264.95640564 272.12931824 C264.69672871 273.54282944 264.43708821 274.95634734 264.17749023 276.36987305 C263.94956284 277.60529343 263.72163544 278.84071381 263.48680115 280.11357117 C262.94456561 282.8408264 262.94456561 282.8408264 263 285 C261.02 285.495 261.02 285.495 259 286 C258.87625 286.9075 258.7525 287.815 258.625 288.75 C258.07197714 291.62571885 257.31921707 293.44951366 256 296 C256 296.99 256 297.98 256 299 C256.53625 298.38125 257.0725 297.7625 257.625 297.125 C260 295 260 295 263.125 294 C266.12282436 293.2873507 266.12282436 293.2873507 267.375 290.875 C267.58125 290.25625 267.7875 289.6375 268 289 C267.34 288.01 266.68 287.02 266 286 C265.35805787 279.16544443 267.0358089 272.4803158 268.30078125 265.7890625 C268.66321505 263.82960258 269.02564865 261.87014262 269.38807201 259.91068077 C269.89632351 257.17191054 270.41041105 254.4342472 270.92431641 251.6965332 C271.56230372 248.29192796 272.19416251 244.88618789 272.82617188 241.48046875 C273.07387011 240.14629887 273.3215812 238.81213137 273.56930542 237.47796631 C273.75098581 236.49938282 273.75098581 236.49938282 273.93633652 235.50102997 C274.29824463 233.55271827 274.66073221 231.60451424 275.02322388 229.65631104 C276.31724347 222.69833185 277.60926437 215.74016231 278.85546875 208.7734375 C279.08258545 207.50677246 279.30970215 206.24010742 279.54370117 204.93505859 C280.07680981 202.00098765 280.07680981 202.00098765 280 199 C281.32 198.34 282.64 197.68 284 197 C284 196.34 284 195.68 284 195 C284.9538559 195.02283554 285.90771179 195.04567108 286.89047241 195.06919861 C299.0519448 195.36018397 311.21345753 195.64945912 323.375 195.9375 C324.3417654 195.96039848 325.30853081 195.98329697 326.30459213 196.00688934 C357.20188644 196.73815144 388.09929927 197.42737685 419 198 C419.33 198.99 419.66 199.98 420 201 C421.98 201 423.96 201 426 201 C426.67673447 197.59679066 426.67673447 197.59679066 427 194 C426.01 193.01 426.01 193.01 425 192 C422.63210159 192.31156558 420.49942679 192.81559519 418.2590332 193.64282227 C414.96003545 194.16442971 412.44416127 193.28428022 409.23046875 192.40234375 C408.54179214 192.21688492 407.85311554 192.03142609 407.14356995 191.84034729 C405.6270443 191.43114497 404.11166227 191.01768704 402.59729004 190.60058594 C398.38171247 189.44061343 394.15701451 188.31460731 389.93359375 187.18359375 C389.0107962 186.93560028 388.08799866 186.68760681 387.13723755 186.43209839 C375.59583688 183.33880023 364.01824453 180.38686137 352.43887329 177.43948364 C348.79604453 176.51172664 345.15423408 175.58004592 341.51245117 174.64819336 C339.23232803 174.06727502 336.95213889 173.48661563 334.671875 172.90625 C333.64091202 172.64203751 332.60994904 172.37782501 331.54774475 172.10560608 C325.39665461 170.54623315 319.23580272 169.17661504 313 168 C312.505 166.02 312.505 166.02 312 164 C310.35 163.67 308.7 163.34 307 163 Z M836 165 C836 165.99 836 166.98 836 168 C837.32 168 838.64 168 840 168 C839.67 167.01 839.34 166.02 839 165 C838.01 165 837.02 165 836 165 Z M1152 166 C1151.67 166.99 1151.34 167.98 1151 169 C1151.99 169 1152.98 169 1154 169 C1154 168.01 1154 167.02 1154 166 C1153.34 166 1152.68 166 1152 166 Z M1082 171 C1082.66 172.32 1083.32 173.64 1084 175 C1084 174.01 1084 173.02 1084 172 C1083.34 171.67 1082.68 171.34 1082 171 Z M828 174 C828.33 174.66 828.66 175.32 829 176 C829.66 176 830.32 176 831 176 C831 175.34 831 174.68 831 174 C830.01 174 829.02 174 828 174 Z M1085 175 C1086.3089572 178.12197478 1086.3089572 178.12197478 1089 180 C1087.6910428 176.87802522 1087.6910428 176.87802522 1085 175 Z M1089 180 C1090.3089572 183.12197478 1090.3089572 183.12197478 1093 185 C1091.6910428 181.87802522 1091.6910428 181.87802522 1089 180 Z M1093 185 C1094.3089572 188.12197478 1094.3089572 188.12197478 1097 190 C1095.6910428 186.87802522 1095.6910428 186.87802522 1093 185 Z M1097 190 C1098.55500981 193.81684226 1101.03595495 196.19195732 1104 199 C1102.44499019 195.18315774 1099.96404505 192.80804268 1097 190 Z M-33 199 C-33.33 199.99 -33.66 200.98 -34 202 C-33.67 202.66 -33.34 203.32 -33 204 C-31.68 204 -30.36 204 -29 204 C-28.67 202.68 -28.34 201.36 -28 200 C-29.65 199.67 -31.3 199.34 -33 199 Z M1104 199 C1104.66 200.32 1105.32 201.64 1106 203 C1106 202.01 1106 201.02 1106 200 C1105.34 199.67 1104.68 199.34 1104 199 Z M78 201 C78 202.32 78 203.64 78 205 C78.99 204.67 79.98 204.34 81 204 C81 203.01 81 202.02 81 201 C80.01 201 79.02 201 78 201 Z M1107 203 C1108.3089572 206.12197478 1108.3089572 206.12197478 1111 208 C1109.6910428 204.87802522 1109.6910428 204.87802522 1107 203 Z M1111 208 C1112.3089572 211.12197478 1112.3089572 211.12197478 1115 213 C1113.6910428 209.87802522 1113.6910428 209.87802522 1111 208 Z M1115 213 C1116.3089572 216.12197478 1116.3089572 216.12197478 1119 218 C1117.6910428 214.87802522 1117.6910428 214.87802522 1115 213 Z M1119 218 C1119.66 219.32 1120.32 220.64 1121 222 C1121 221.01 1121 220.02 1121 219 C1120.34 218.67 1119.68 218.34 1119 218 Z M1122 222 C1123.3089572 225.12197478 1123.3089572 225.12197478 1126 227 C1124.6910428 223.87802522 1124.6910428 223.87802522 1122 222 Z M931 225 C930.67 225.99 930.34 226.98 930 228 C930.33 228.66 930.66 229.32 931 230 C932.65 229.67 934.3 229.34 936 229 C935.67 227.68 935.34 226.36 935 225 C933.68 225 932.36 225 931 225 Z M1126 227 C1127.3089572 230.12197478 1127.3089572 230.12197478 1130 232 C1128.6910428 228.87802522 1128.6910428 228.87802522 1126 227 Z M1061 230 C1061 231.65 1061 233.3 1061 235 C1062.32 235.33 1063.64 235.66 1065 236 C1065.33 234.35 1065.66 232.7 1066 231 C1064.35 230.67 1062.7 230.34 1061 230 Z M1130 232 C1130.66 233.32 1131.32 234.64 1132 236 C1132 235.01 1132 234.02 1132 233 C1131.34 232.67 1130.68 232.34 1130 232 Z M125 234 C125.33 235.65 125.66 237.3 126 239 C127.65 238.67 129.3 238.34 131 238 C131.33 237.01 131.66 236.02 132 235 C131.02149805 233.97895449 130.02019573 232.9793879 129 232 C127.53774984 231.90754997 127.53774984 231.90754997 125 234 Z M1037 235 C1036.67 235.99 1036.34 236.98 1036 238 C1036.66 238 1037.32 238 1038 238 C1037.67 237.01 1037.34 236.02 1037 235 Z M1133 236 C1133.66 237.32 1134.32 238.64 1135 240 C1135 239.01 1135 238.02 1135 237 C1134.34 236.67 1133.68 236.34 1133 236 Z M1076 240 C1075.01 240.495 1075.01 240.495 1074 241 C1074 242.65 1074 244.3 1074 246 C1076.475 246.495 1076.475 246.495 1079 247 C1079.33 245.35 1079.66 243.7 1080 242 C1078.11683841 240.89163577 1078.11683841 240.89163577 1076 240 Z M1136 240 C1137.3089572 243.12197478 1137.3089572 243.12197478 1140 245 C1138.6910428 241.87802522 1138.6910428 241.87802522 1136 240 Z M1140 245 C1140.66 246.32 1141.32 247.64 1142 249 C1142 248.01 1142 247.02 1142 246 C1141.34 245.67 1140.68 245.34 1140 245 Z M1143 249 C1144.3089572 252.12197478 1144.3089572 252.12197478 1147 254 C1145.6910428 250.87802522 1145.6910428 250.87802522 1143 249 Z M191 250 C191 250.99 191 251.98 191 253 C191.99 252.67 192.98 252.34 194 252 C194 251.34 194 250.68 194 250 C193.01 250 192.02 250 191 250 Z M592 250 C592.33 251.32 592.66 252.64 593 254 C593.99 253.67 594.98 253.34 596 253 C596 252.01 596 251.02 596 250 C594.68 250 593.36 250 592 250 Z M1147 254 C1147.66 255.32 1148.32 256.64 1149 258 C1149 257.01 1149 256.02 1149 255 C1148.34 254.67 1147.68 254.34 1147 254 Z M322 255 C322 255.66 322 256.32 322 257 C322.66 257 323.32 257 324 257 C324 256.34 324 255.68 324 255 C323.34 255 322.68 255 322 255 Z M1151 259 C1151.66 260.32 1152.32 261.64 1153 263 C1153 262.01 1153 261.02 1153 260 C1152.34 259.67 1151.68 259.34 1151 259 Z M1154 263 C1154.66 264.32 1155.32 265.64 1156 267 C1156 266.01 1156 265.02 1156 264 C1155.34 263.67 1154.68 263.34 1154 263 Z M1030 264 C1030 265.32 1030 266.64 1030 268 C1031.32 267.67 1032.64 267.34 1034 267 C1033.67 266.01 1033.34 265.02 1033 264 C1032.01 264 1031.02 264 1030 264 Z M1157 267 C1158.3089572 270.12197478 1158.3089572 270.12197478 1161 272 C1159.6910428 268.87802522 1159.6910428 268.87802522 1157 267 Z M236 272 C236 273.32 236 274.64 236 276 C237.65 275.67 239.3 275.34 241 275 C240.67 274.01 240.34 273.02 240 272 C238.68 272 237.36 272 236 272 Z M1161 272 C1162.55500981 275.81684226 1165.03595495 278.19195732 1168 281 C1166.44499019 277.18315774 1163.96404505 274.80804268 1161 272 Z M194 280 C194.33 281.32 194.66 282.64 195 284 C195.99 283.67 196.98 283.34 198 283 C197.67 282.01 197.34 281.02 197 280 C196.01 280 195.02 280 194 280 Z M793 279 C792.01 279.66 791.02 280.32 790 281 C790.33 282.32 790.66 283.64 791 285 C792.65 284.67 794.3 284.34 796 284 C795.65213292 282.02463255 795.65213292 282.02463255 795 280 C794.34 279.67 793.68 279.34 793 279 Z M1168 281 C1168.66 282.32 1169.32 283.64 1170 285 C1170 284.01 1170 283.02 1170 282 C1169.34 281.67 1168.68 281.34 1168 281 Z M753 282 C753 282.99 753 283.98 753 285 C753.66 284.67 754.32 284.34 755 284 C754.34 283.34 753.68 282.68 753 282 Z M1171 285 C1171.66 286.32 1172.32 287.64 1173 289 C1173 288.01 1173 287.02 1173 286 C1172.34 285.67 1171.68 285.34 1171 285 Z M848 289 C845.65712582 291.67247634 845.65712582 291.67247634 845 295 C844.39273575 295.11065796 843.7854715 295.22131592 843.1598053 295.33532715 C837.01186343 296.50339072 831.09367418 298.04955836 825.12109375 299.90625 C824.20277771 300.18750229 823.28446167 300.46875458 822.33831787 300.75852966 C820.38070122 301.35866657 818.42373345 301.96092364 816.46737671 302.56515503 C813.40167172 303.51105454 810.33363616 304.44901896 807.26489258 305.38500977 C798.60412661 308.02974331 789.94817457 310.68710908 781.31858826 313.43209839 C778.30579326 314.38924767 775.28938457 315.33466821 772.27249146 316.27880859 C770.89841392 316.71290777 769.52632444 317.15335838 768.15646362 317.60058594 C760.44239627 320.1189566 754.99772616 321.19185025 747 320 C745.13574443 321.15653939 745.13574443 321.15653939 744 323 C744.3403125 324.7015625 744.3403125 324.7015625 744.6875 326.4375 C745.69153063 331.89374724 742.8971463 335.74850164 740.25 340.36328125 C738.62043439 343.01486182 738.62043439 343.01486182 740 346 C741.17154293 343.71070947 742.33738074 341.41881638 743.5 339.125 C744.00080078 338.14853516 744.00080078 338.14853516 744.51171875 337.15234375 C746.36843717 333.7475529 746.36843717 333.7475529 747 330 C749.475 329.505 749.475 329.505 752 329 C752.33 327.35 752.66 325.7 753 324 C753.67111313 323.82082535 754.34222626 323.6416507 755.03367615 323.45704651 C761.59672676 321.68839685 768.10500292 319.78773986 774.59765625 317.77734375 C776.62181139 317.15433024 778.64598191 316.53136668 780.67016602 315.90844727 C781.71488068 315.58627228 782.75959534 315.26409729 783.83596802 314.93215942 C804.84330882 308.45611963 825.88783559 302.12536492 847 296 C847 296.66 847 297.32 847 298 C848.98 298 850.96 298 853 298 C853.33 297.01 853.66 296.02 854 295 C855.46473503 295.37609154 855.46473503 295.37609154 856.95906067 295.75978088 C865.73230235 297.99391293 874.52443544 300.0277477 883.39139366 301.86283684 C886.9006969 302.59185611 890.40602654 303.33966092 893.91210938 304.08398438 C898.32532192 305.01990205 902.73951556 305.95014552 907.15795898 306.86108398 C910.77854556 307.60804703 914.39484346 308.37328062 918.0089817 309.15081978 C919.37384679 309.44096007 920.74014735 309.72443651 922.10785484 310.00086784 C924.01261119 310.38670858 925.91211646 310.79820054 927.8112793 311.21069336 C928.88887009 311.43623398 929.96646088 311.6617746 931.07670593 311.89414978 C934.63543958 313.24037986 936.40119175 315.27484884 939 318 C941.70441532 318.25941717 941.70441532 318.25941717 944 317 C945.36020151 315.03241727 945.36020151 315.03241727 946 313 C945.01 311.68 944.02 310.36 943 309 C939.39007621 309.65585189 939.39007621 309.65585189 936 311 C933.51883257 310.59046452 931.10984899 310.10796475 928.66040039 309.55297852 C927.90414871 309.38731384 927.14789703 309.22164917 926.36872864 309.05096436 C923.8602719 308.49990347 921.35404113 307.93930815 918.84765625 307.37890625 C917.10907336 306.995647 915.3703372 306.61308242 913.63145447 306.23118591 C909.04623729 305.22263949 904.46275416 304.20643412 899.87969971 303.18811035 C892.54713532 301.55978128 885.21242594 299.94119344 877.87695122 298.32603264 C875.31092216 297.75959395 872.74588569 297.18881644 870.18092346 296.61756897 C868.61031041 296.27038197 867.03966884 295.92332399 865.46899414 295.57641602 C864.75356445 295.41588242 864.03813477 295.25534882 863.30102539 295.08995056 C860.46339341 294.46641601 857.91621692 294 855 294 C854.773125 293.360625 854.54625 292.72125 854.3125 292.0625 C853.14749104 289.72806339 853.14749104 289.72806339 850.375 289.25 C849.199375 289.12625 849.199375 289.12625 848 289 Z M1174 289 C1174.66 290.32 1175.32 291.64 1176 293 C1176 292.01 1176 291.02 1176 290 C1175.34 289.67 1174.68 289.34 1174 289 Z M1178 294 C1179.73212829 297.98586338 1182.3561998 301.27699774 1185 304.6875 C1185.45117188 305.28111328 1185.90234375 305.87472656 1186.3671875 306.48632812 C1188.75854576 309.72546661 1188.75854576 309.72546661 1192 312 C1190.26787171 308.01413662 1187.6438002 304.72300226 1185 301.3125 C1184.54882812 300.71888672 1184.09765625 300.12527344 1183.6328125 299.51367188 C1181.24145424 296.27453339 1181.24145424 296.27453339 1178 294 Z M251 302 C249.02 303.98 247.04 305.96 245 308 C245.33 308.66 245.66 309.32 246 310 C247.98 308.02 249.96 306.04 252 304 C251.67 303.34 251.34 302.68 251 302 Z M711 306 C710.67 307.65 710.34 309.3 710 311 C712.475 311.495 712.475 311.495 715 312 C715.33 310.35 715.66 308.7 716 307 C714.35 306.67 712.7 306.34 711 306 Z M1081 306 C1080.67 306.99 1080.34 307.98 1080 309 C1081.32 309.33 1082.64 309.66 1084 310 C1083.67 308.68 1083.34 307.36 1083 306 C1082.34 306 1081.68 306 1081 306 Z M243 311 C241.7315625 312.423125 241.7315625 312.423125 240.4375 313.875 C237.15607604 317.19548853 234.50803597 318.02767852 230 319 C228.72996677 320.05310277 228.72996677 320.05310277 228.8125 322.4375 C228.73160017 325.16734675 228.73160017 325.16734675 231 327 C234.09926819 326.67801034 234.09926819 326.67801034 237 326 C237.226875 324.783125 237.45375 323.56625 237.6875 322.3125 C238.72609696 318.04439716 240.615968 315.84971116 244 313 C243.67 312.34 243.34 311.68 243 311 Z M1192 312 C1192.66 313.32 1193.32 314.64 1194 316 C1194 315.01 1194 314.02 1194 313 C1193.34 312.67 1192.68 312.34 1192 312 Z M932 314 C931.67 315.32 931.34 316.64 931 318 C932.32 318.33 933.64 318.66 935 319 C935.33 317.35 935.66 315.7 936 314 C934.68 314 933.36 314 932 314 Z M1195 316 C1196.33415002 318.82489041 1197.88069332 321.27054561 1199.6875 323.8125 C1201.68055015 326.96375334 1202 327.90055393 1202 331.8125 C1201.05483052 334.82522771 1200.49826147 336.15345892 1198 338 C1198.33 338.66 1198.66 339.32 1199 340 C1199.515625 339.360625 1200.03125 338.72125 1200.5625 338.0625 C1203.6601111 335.44144445 1206.04475906 335.51271642 1210 335 C1212.33391203 332.21885944 1212.33391203 332.21885944 1211.625 329.3125 C1211.41875 328.549375 1211.2125 327.78625 1211 327 C1209.02253397 326.26919734 1207.01927511 325.60578253 1205 325 C1204.01 325.495 1204.01 325.495 1203 326 C1202.773125 325.46375 1202.54625 324.9275 1202.3125 324.375 C1200.55615049 321.19684374 1198.41020825 318.71920931 1196 316 C1195.67 316 1195.34 316 1195 316 Z M669 319 C669.33 319.99 669.66 320.98 670 322 C670.66 321.67 671.32 321.34 672 321 C672 320.34 672 319.68 672 319 C671.01 319 670.02 319 669 319 Z M316 338 C316 338.99 316 339.98 316 341 C316.99 341 317.98 341 319 341 C319 340.01 319 339.02 319 338 C318.01 338 317.02 338 316 338 Z M1197 340 C1195.35 341.65 1193.7 343.3 1192 345 C1192.33 345.66 1192.66 346.32 1193 347 C1194.65 345.35 1196.3 343.7 1198 342 C1197.67 341.34 1197.34 340.68 1197 340 Z M429 341 C429 341.99 429 342.98 429 344 C429.99 344 430.98 344 432 344 C432 343.01 432 342.02 432 341 C431.01 341 430.02 341 429 341 Z M669 342 C669 342.99 669 343.98 669 345 C669.66 344.67 670.32 344.34 671 344 C671 343.34 671 342.68 671 342 C670.34 342 669.68 342 669 342 Z M738 346 C739 348 739 348 739 348 Z M1191 347 C1189.02 348.98 1187.04 350.96 1185 353 C1185.33 353.66 1185.66 354.32 1186 355 C1187.98 353.02 1189.96 351.04 1192 349 C1191.67 348.34 1191.34 347.68 1191 347 Z M737 348 C738 350 738 350 738 350 Z M-20 349 C-20 350.32 -20 351.64 -20 353 C-19.34 352.67 -18.68 352.34 -18 352 C-18.33 351.01 -18.66 350.02 -19 349 C-19.33 349 -19.66 349 -20 349 Z M736 350 C735.72849121 350.59538574 735.45698242 351.19077148 735.17724609 351.80419922 C733.93106883 354.50486523 732.65361219 357.18954803 731.375 359.875 C730.94832031 360.81214844 730.52164063 361.74929688 730.08203125 362.71484375 C726.73462854 369.65945535 726.73462854 369.65945535 722.73046875 371.515625 C721.82941406 371.67546875 720.92835938 371.8353125 720 372 C718.75225614 373.82423512 718.75225614 373.82423512 719 376 C720.3516367 378.24755753 720.3516367 378.24755753 722 380 C725.93075644 379.42547254 725.93075644 379.42547254 729 377 C728.7834375 376.15824219 728.566875 375.31648438 728.34375 374.44921875 C727.83748843 369.36934411 730.07443801 366.17214714 732.5 361.8125 C733.37344554 360.21967147 734.2384679 358.62218603 735.09375 357.01953125 C735.67672852 355.96922729 735.67672852 355.96922729 736.27148438 354.89770508 C737.29602354 352.82936861 737.29602354 352.82936861 736 350 Z M1184 355 C1182.02 356.98 1180.04 358.96 1178 361 C1178.33 361.66 1178.66 362.32 1179 363 C1180.98 361.02 1182.96 359.04 1185 357 C1184.67 356.34 1184.34 355.68 1184 355 Z M1176 364 C1174.35 365.65 1172.7 367.3 1171 369 C1171.33 369.66 1171.66 370.32 1172 371 C1173.65 369.35 1175.3 367.7 1177 366 C1176.67 365.34 1176.34 364.68 1176 364 Z M1062 368 C1061.67 368.99 1061.34 369.98 1061 371 C1061.99 371 1062.98 371 1064 371 C1064 370.01 1064 369.02 1064 368 C1063.34 368 1062.68 368 1062 368 Z M-20 370 C-22.28728734 371.83883881 -22.28728734 371.83883881 -22.125 374.625 C-22.08375 375.40875 -22.0425 376.1925 -22 377 C-20.02 377.99 -20.02 377.99 -18 379 C-18.01160156 379.92039062 -18.02320312 380.84078125 -18.03515625 381.7890625 C-18.09786871 390.58672507 -17.75687238 399.2283897 -17 408 C-18.485 408.495 -18.485 408.495 -20 409 C-20.92393164 410.86196946 -20.92393164 410.86196946 -21 413 C-20.34 413.99 -19.68 414.98 -19 416 C-15.91634129 416.2502157 -15.91634129 416.2502157 -13 416 C-12.34 414.35 -11.68 412.7 -11 411 C-11.64525635 410.47075928 -12.2905127 409.94151855 -12.95532227 409.39624023 C-15.55848016 406.34549459 -15.57287526 404.63213185 -15.71484375 400.66015625 C-15.76060547 399.43232422 -15.80636719 398.20449219 -15.85351562 396.93945312 C-15.88123047 395.66005859 -15.90894531 394.38066406 -15.9375 393.0625 C-15.99228516 391.78697266 -16.04707031 390.51144531 -16.10351562 389.19726562 C-16.29144352 382.90992353 -16.35977207 379.3861184 -13 374 C-13.33 373.01 -13.66 372.02 -14 371 C-16.90073181 370.32198966 -16.90073181 370.32198966 -20 370 Z M1168 373 C1166.02 374.98 1164.04 376.96 1162 379 C1162.33 379.66 1162.66 380.32 1163 381 C1164.98 379.02 1166.96 377.04 1169 375 C1168.67 374.34 1168.34 373.68 1168 373 Z M1160 382 C1158.02 383.98 1156.04 385.96 1154 388 C1154.33 388.66 1154.66 389.32 1155 390 C1156.98 388.02 1158.96 386.04 1161 384 C1160.67 383.34 1160.34 382.68 1160 382 Z M15 391 C15 391.99 15 392.98 15 394 C15.99 394 16.98 394 18 394 C17.67 393.01 17.34 392.02 17 391 C16.34 391 15.68 391 15 391 Z M1151 392 C1149.02 393.98 1147.04 395.96 1145 398 C1145.33 398.66 1145.66 399.32 1146 400 C1147.98 398.02 1149.96 396.04 1152 394 C1151.67 393.34 1151.34 392.68 1151 392 Z M1142 402 C1140.02 403.98 1138.04 405.96 1136 408 C1136.33 408.66 1136.66 409.32 1137 410 C1138.98 408.02 1140.96 406.04 1143 404 C1142.67 403.34 1142.34 402.68 1142 402 Z M512 406 C511.67 407.65 511.34 409.3 511 411 C512.32 411.33 513.64 411.66 515 412 C515.33 410.35 515.66 408.7 516 407 C514.68 406.67 513.36 406.34 512 406 Z M1004 408 C1003.67 409.32 1003.34 410.64 1003 412 C1004.485 412.99 1004.485 412.99 1006 414 C1006.66 413.67 1007.32 413.34 1008 413 C1007.67 411.35 1007.34 409.7 1007 408 C1006.01 408 1005.02 408 1004 408 Z M237 409 C237 410.32 237 411.64 237 413 C237.99 412.67 238.98 412.34 240 412 C240 411.34 240 410.68 240 410 C239.01 409.67 238.02 409.34 237 409 Z M1133 412 C1131.35 413.65 1129.7 415.3 1128 417 C1128.33 417.66 1128.66 418.32 1129 419 C1130.65 417.35 1132.3 415.7 1134 414 C1133.67 413.34 1133.34 412.68 1133 412 Z M552 414 C551.34 415.32 550.68 416.64 550 418 C551.98 418.99 551.98 418.99 554 420 C554.66 419.01 555.32 418.02 556 417 C555.34 416.01 554.68 415.02 554 414 C553.34 414 552.68 414 552 414 Z M99 418 C98.34 418.66 97.68 419.32 97 420 C97.3185177 422.10820797 97.3185177 422.10820797 98 424 C99.89179203 424.6814823 99.89179203 424.6814823 102 425 C102.66 424.34 103.32 423.68 104 423 C103.6814823 420.89179203 103.6814823 420.89179203 103 419 C101.10820797 418.3185177 101.10820797 418.3185177 99 418 Z M1127 419 C1125.02 420.98 1123.04 422.96 1121 425 C1121.33 425.66 1121.66 426.32 1122 427 C1123.98 425.02 1125.96 423.04 1128 421 C1127.67 420.34 1127.34 419.68 1127 419 Z M1064 423 C1063.80098961 425.52079828 1063.87687801 427.56223294 1064.5625 430 C1065.12252081 432.56009512 1064.62918378 434.48326486 1064 437 C1065.50559539 435.03617993 1066.89131683 433.21736634 1068 431 C1068.845625 430.566875 1069.69125 430.13375 1070.5625 429.6875 C1071.366875 429.130625 1072.17125 428.57375 1073 428 C1073.58350505 425.45709375 1073.58350505 425.45709375 1073 423 C1071.17296773 420.7508092 1071.17296773 420.7508092 1068.5 420.75 C1065.82703227 420.7508092 1065.82703227 420.7508092 1064 423 Z M452 423 C451.34 424.98 450.68 426.96 450 429 C451.37485532 430.54166642 451.37485532 430.54166642 453 432 C453.66 432 454.32 432 455 432 C455.14695312 433.44826172 455.14695312 433.44826172 455.296875 434.92578125 C455.44787793 436.38802483 455.59892421 437.85026394 455.75 439.3125 C455.83145264 440.1176001 455.91290527 440.9227002 455.99682617 441.75219727 C456.54353196 447.03131016 457.15533227 452.29842545 457.82894897 457.56263733 C458.23220287 460.7238254 458.62252278 463.8865671 459.01257324 467.04940796 C459.21240811 468.64054331 459.41837744 470.23092031 459.63049316 471.82046509 C459.93204523 474.0856758 460.21216306 476.35266199 460.48828125 478.62109375 C460.63324791 479.64820969 460.63324791 479.64820969 460.78114319 480.69607544 C461.14929261 483.88218937 461.26823756 485.5783325 459.51635742 488.33227539 C459.01595947 488.88262451 458.51556152 489.43297363 458 490 C458.16666667 492.08333333 458.16666667 492.08333333 459 494 C460.33371326 498.00113979 459.0737048 500.61362957 457.7734375 504.44921875 C457.51865128 505.22454956 457.26386505 505.99988037 457.00135803 506.79870605 C456.13415436 509.4311068 455.25439019 512.05914752 454.375 514.6875 C453.75047529 516.57627873 453.12688576 518.46536689 452.50415039 520.35473633 C451.11617745 524.56211192 449.72334061 528.76783912 448.32763672 532.97265625 C445.81842017 540.53906605 443.33135579 548.11268785 440.84765625 555.6875 C440.62717054 556.35993492 440.40668484 557.03236984 440.17951775 557.72518158 C439.27966329 560.46970046 438.37984674 563.21423174 437.48018169 565.95881271 C435.89251151 570.8017031 434.30217071 575.64371111 432.71069336 580.48535156 C428.74942848 592.53905375 424.79583329 604.59478955 420.90625 616.671875 C420.60227798 617.61424515 420.29830597 618.5566153 419.98512268 619.52754211 C418.61913639 623.76337808 417.25772501 628.00055644 415.90600586 632.2409668 C411.22748686 646.83843418 411.22748686 646.83843418 408 653 C407.01 653.33 406.02 653.66 405 654 C404.32326553 657.40320934 404.32326553 657.40320934 404 661 C405.82915641 663.23845015 405.82915641 663.23845015 408.5 663.3125 C409.325 663.209375 410.15 663.10625 411 663 C413.26009875 660.26340684 413.26009875 660.26340684 412.85546875 657.578125 C413 655 413 655 414.80078125 652.859375 C415.62964844 652.16328125 416.45851563 651.4671875 417.3125 650.75 C418.22902344 649.96882812 419.14554688 649.18765625 420.08984375 648.3828125 C423.76721549 645.37181014 427.45240059 642.37087615 431.1484375 639.3828125 C434.18869768 636.84232111 437.10023676 634.19784549 440 631.5 C444.632511 627.1900623 449.4212195 623.1493906 454.3515625 619.1796875 C456.97275119 617.02242601 459.49154281 614.78689 462 612.5 C465.37460948 609.42346328 468.81815864 606.48881783 472.375 603.625 C476.92780507 599.94428153 481.23417411 596.07351352 485.5168457 592.08862305 C489.62760957 588.28614986 493.92266523 584.75736701 498.28515625 581.24609375 C501.10673495 578.9116941 503.80590712 576.48009402 506.5 574 C510.97386396 569.88251781 515.59985344 566.023141 520.328125 562.203125 C523.74142704 559.38864788 527.00128274 556.42532141 530.2734375 553.44921875 C537.52860858 546.93203785 544.96475528 540.61363715 552.5625 534.5 C556.72002794 531.13117957 560.65668394 527.58963994 564.5625 523.9375 C580.63030315 509 580.63030315 509 588 509 C588.33 507.02 588.66 505.04 589 503 C587.68 502.01 586.36 501.02 585 500 C582.3094472 501.22007944 582.3094472 501.22007944 580 503 C569.4719853 502.84040763 558.84279412 501.10527589 548.40048409 499.85711479 C545.31904923 499.48894198 542.23721537 499.12428622 539.15525818 498.76051331 C531.51273623 497.85782181 523.87081484 496.95009599 516.22906494 496.04089355 C509.74246786 495.26914678 503.25556259 494.50010678 496.76817131 493.73506355 C493.73782277 493.37658465 490.70797377 493.01407259 487.67811584 492.651474 C485.8200227 492.43206505 483.96190528 492.21286147 482.10375977 491.99389648 C480.84829849 491.84196587 480.84829849 491.84196587 479.56747437 491.68696594 C475.35001453 491.19457837 471.25580089 490.89125361 467 491 C463.33714936 484.1975631 462.35206147 477.33158354 461.421875 469.765625 C461.28678528 468.69125183 461.15169556 467.61687866 461.01251221 466.50994873 C460.73037035 464.24775584 460.45152675 461.98514944 460.17578125 459.72216797 C459.74959143 456.24666821 459.30497852 452.77383867 458.859375 449.30078125 C458.58741671 447.10170133 458.31654519 444.90248668 458.046875 442.703125 C457.84393829 441.13911957 457.84393829 441.13911957 457.63690186 439.54351807 C457.52308167 438.58201843 457.40926147 437.6205188 457.29199219 436.62988281 C457.18699402 435.78194153 457.08199585 434.93400024 456.97381592 434.06036377 C457 432 457 432 459 430 C459.33333333 427.5 459.33333333 427.5 459 425 C457.16116119 422.71271266 457.16116119 422.71271266 454.375 422.875 C453.59125 422.91625 452.8075 422.9575 452 423 Z M1118 429 C1116.02 430.98 1114.04 432.96 1112 435 C1112.33 435.66 1112.66 436.32 1113 437 C1114.98 435.02 1116.96 433.04 1119 431 C1118.67 430.34 1118.34 429.68 1118 429 Z M1247 431 C1247 432.32 1247 433.64 1247 435 C1247.66 435 1248.32 435 1249 435 C1249 433.68 1249 432.36 1249 431 C1248.34 431 1247.68 431 1247 431 Z M1063 437 C1061.87483915 438.83284443 1061.87483915 438.83284443 1061 441 C1061.33 441.99 1061.66 442.98 1062 444 C1063.12516085 442.16715557 1063.12516085 442.16715557 1064 440 C1063.67 439.01 1063.34 438.02 1063 437 Z M652 438 C652.33 438.66 652.66 439.32 653 440 C653.33 439.34 653.66 438.68 654 438 C653.34 438 652.68 438 652 438 Z M1110 438 C1108.35 439.65 1106.7 441.3 1105 443 C1105.33 443.66 1105.66 444.32 1106 445 C1107.65 443.35 1109.3 441.7 1111 440 C1110.67 439.34 1110.34 438.68 1110 438 Z M1060 444 C1058.46331585 447.26361594 1056.94845148 450.53690088 1055.4375 453.8125 C1054.99986328 454.74126953 1054.56222656 455.67003906 1054.11132812 456.62695312 C1053.70205078 457.51962891 1053.29277344 458.41230469 1052.87109375 459.33203125 C1052.48880615 460.15421143 1052.10651855 460.9763916 1051.71264648 461.82348633 C1050.71529398 464.1387661 1050.71529398 464.1387661 1052 467 C1053.53668415 463.73638406 1055.05154852 460.46309912 1056.5625 457.1875 C1057.21895508 455.7943457 1057.21895508 455.7943457 1057.88867188 454.37304688 C1058.50258789 453.0340332 1058.50258789 453.0340332 1059.12890625 451.66796875 C1059.51119385 450.84578857 1059.89348145 450.0236084 1060.28735352 449.17651367 C1061.28470602 446.8612339 1061.28470602 446.8612339 1060 444 Z M559 445 C558.67 445.99 558.34 446.98 558 448 C558.33 448.66 558.66 449.32 559 450 C559.99 449.67 560.98 449.34 562 449 C561.67 447.68 561.34 446.36 561 445 C560.34 445 559.68 445 559 445 Z M1104 445 C1101.36 447.64 1098.72 450.28 1096 453 C1096.33 453.66 1096.66 454.32 1097 455 C1099.64 452.36 1102.28 449.72 1105 447 C1104.67 446.34 1104.34 445.68 1104 445 Z M576 448 C576 448.99 576 449.98 576 451 C576.99 450.67 577.98 450.34 579 450 C579 449.34 579 448.68 579 448 C578.01 448 577.02 448 576 448 Z M82 453 C82 454.32 82 455.64 82 457 C83.32 456.67 84.64 456.34 86 456 C85.67 455.01 85.34 454.02 85 453 C84.01 453 83.02 453 82 453 Z M1197 453 C1196.67 454.65 1196.34 456.3 1196 458 C1197.32 458.33 1198.64 458.66 1200 459 C1201.10836423 457.11683841 1201.10836423 457.11683841 1202 455 C1201.67 454.34 1201.34 453.68 1201 453 C1199.68 453 1198.36 453 1197 453 Z M1094 456 C1091.69 458.31 1089.38 460.62 1087 463 C1087.33 463.66 1087.66 464.32 1088 465 C1090.31 462.69 1092.62 460.38 1095 458 C1094.67 457.34 1094.34 456.68 1094 456 Z M755 460 C754.34 461.32 753.68 462.64 753 464 C754.98 464.99 754.98 464.99 757 466 C757.66 465.34 758.32 464.68 759 464 C758.6814823 461.89179203 758.6814823 461.89179203 758 460 C757.01 460 756.02 460 755 460 Z M721 462 C721 463.65 721 465.3 721 467 C723.39719432 467.67958603 723.39719432 467.67958603 726 468 C726.66 467.34 727.32 466.68 728 466 C727.6814823 463.89179203 727.6814823 463.89179203 727 462 C723.95086772 460.98888907 723.95086772 460.98888907 721 462 Z M986 465 C985.67 466.32 985.34 467.64 985 469 C985.99 469 986.98 469 988 469 C987.67 467.68 987.34 466.36 987 465 C986.67 465 986.34 465 986 465 Z M1086 465 C1081.05 470.28 1076.1 475.56 1071 481 C1071.33 481.66 1071.66 482.32 1072 483 C1077.25276628 477.85228904 1082.30233025 472.66129431 1087 467 C1086.67 466.34 1086.34 465.68 1086 465 Z M803 467 C800.81108239 468.82473909 800.81108239 468.82473909 800.5 471.375 C800.665 472.24125 800.83 473.1075 801 474 C801.9269165 474.55244385 802.85383301 475.1048877 803.80883789 475.67407227 C807.86652751 478.63158195 808.86608124 481.24464324 810.55859375 485.83984375 C810.86495255 486.62267227 811.17131134 487.40550079 811.48695374 488.21205139 C812.4880539 490.78077284 813.46248666 493.3587775 814.4375 495.9375 C815.12810852 497.7215174 815.82084445 499.50471262 816.515625 501.28710938 C817.9558058 504.98424735 819.38797685 508.68434985 820.81591797 512.38623047 C823.94842764 520.47432097 827.22116152 528.50533877 830.49588013 536.53665161 C831.80166467 539.74005624 833.10263708 542.94540541 834.40367126 546.15074158 C835.60132626 549.10095069 836.80059336 552.05050264 838 555 C837.34 555 836.68 555 836 555 C835.7497843 557.91634129 835.7497843 557.91634129 836 561 C838.78114056 563.33391203 838.78114056 563.33391203 841.6875 562.625 C842.450625 562.41875 843.21375 562.2125 844 562 C844.9335817 558.06385833 844.9335817 558.06385833 844.39575195 554.16113281 C843.81905847 551.01190968 844.87843355 549.10649791 846.10546875 546.171875 C846.58878662 544.99407471 847.07210449 543.81627441 847.57006836 542.6027832 C848.10902544 541.31844373 848.64817417 540.03418467 849.1875 538.75 C850.30362676 536.05353305 851.41102725 533.35355187 852.515625 530.65234375 C852.8023558 529.95308273 853.08908661 529.25382172 853.38450623 528.53337097 C855.47420051 523.3977162 857.41708967 518.21970508 859.296875 513.00390625 C859.5620845 512.2729776 859.82729401 511.54204895 860.10054016 510.78897095 C861.13787386 507.92724927 862.17447825 505.06586177 863.17782593 502.1920166 C863.87326987 500.2017811 864.58900671 498.21989043 865.30859375 496.23828125 C865.70876709 495.10430908 866.10894043 493.97033691 866.52124023 492.80200195 C868.24081933 489.54368773 869.78237904 488.66254156 873 487 C874.06754834 485.06599083 874.06754834 485.06599083 874 483 C873.01 481.515 873.01 481.515 872 480 C868.91634129 479.7497843 868.91634129 479.7497843 866 480 C865.67 480.99 865.34 481.98 865 483 C864.43007324 482.87995605 863.86014648 482.75991211 863.27294922 482.63623047 C861.51124303 482.26576683 859.7493395 481.89624116 857.98730469 481.52734375 C855.88591936 481.08689022 853.78501738 480.6441252 851.68457031 480.19921875 C846.11061291 479.0277978 840.53396863 477.89897802 834.92984009 476.88235474 C832.20307452 476.387221 829.47905416 475.87773721 826.75494385 475.3682251 C825.42339035 475.1236739 824.09047352 474.88642778 822.75628662 474.65667725 C820.87069424 474.33129863 818.98987303 473.97863403 817.109375 473.625 C816.02624023 473.43164062 814.94310547 473.23828125 813.82714844 473.0390625 C810.32426765 471.75164794 809.25332239 469.892922 807 467 C805.68 467 804.36 467 803 467 Z M1050 467 C1048.87483915 468.83284443 1048.87483915 468.83284443 1048 471 C1048.33 471.99 1048.66 472.98 1049 474 C1050.12516085 472.16715557 1050.12516085 472.16715557 1051 470 C1050.67 469.01 1050.34 468.02 1050 467 Z M1047 474 C1045.62999799 476.93036877 1044.28181448 479.87026914 1042.9375 482.8125 C1042.54755859 483.64587891 1042.15761719 484.47925781 1041.75585938 485.33789062 C1041.39169922 486.14033203 1041.02753906 486.94277344 1040.65234375 487.76953125 C1040.31195068 488.50792236 1039.97155762 489.24631348 1039.62084961 490.00708008 C1038.73322615 492.17314937 1038.73322615 492.17314937 1040 495 C1041.37000201 492.06963123 1042.71818552 489.12973086 1044.0625 486.1875 C1044.64741211 484.93743164 1044.64741211 484.93743164 1045.24414062 483.66210938 C1045.60830078 482.85966797 1045.97246094 482.05722656 1046.34765625 481.23046875 C1046.68804932 480.49207764 1047.02844238 479.75368652 1047.37915039 478.99291992 C1048.26677385 476.82685063 1048.26677385 476.82685063 1047 474 Z M1069 484 C1067.35 485.65 1065.7 487.3 1064 489 C1064.33 489.66 1064.66 490.32 1065 491 C1066.65 489.35 1068.3 487.7 1070 486 C1069.67 485.34 1069.34 484.68 1069 484 Z M-69 490 C-70.32 491.32 -71.64 492.64 -73 494 C-72.51792644 496.50358872 -72.51792644 496.50358872 -71 499 C-69.9378125 499.268125 -68.875625 499.53625 -67.78125 499.8125 C-63.23762516 501.2394235 -61.20610607 503.19877375 -58.0625 506.625 C-57.32290039 507.3984375 -57.32290039 507.3984375 -56.56835938 508.1875 C-55.36704686 509.44712865 -54.18179263 510.7220398 -53 512 C-52.34 511.67 -51.68 511.34 -51 511 C-52.40765625 509.69675781 -52.40765625 509.69675781 -53.84375 508.3671875 C-55.06328065 507.20394288 -56.28198804 506.03983472 -57.5 504.875 C-58.12003906 504.30523437 -58.74007812 503.73546875 -59.37890625 503.1484375 C-63.90907525 498.76761473 -63.90907525 498.76761473 -64.40625 494.5703125 C-64.2721875 493.72210938 -64.138125 492.87390625 -64 492 C-66.475 491.01 -66.475 491.01 -69 490 Z M1063 491 C1060.69 493.31 1058.38 495.62 1056 498 C1056.33 498.66 1056.66 499.32 1057 500 C1059.31 497.69 1061.62 495.38 1064 493 C1063.67 492.34 1063.34 491.68 1063 491 Z M1038 495 C1037.30062798 496.4317616 1036.61587282 497.87067032 1035.9375 499.3125 C1035.55464844 500.11300781 1035.17179687 500.91351563 1034.77734375 501.73828125 C1033.70264486 504.12028753 1033.70264486 504.12028753 1035 507 C1035.69937202 505.5682384 1036.38412718 504.12932968 1037.0625 502.6875 C1037.44535156 501.88699219 1037.82820313 501.08648437 1038.22265625 500.26171875 C1039.29735514 497.87971247 1039.29735514 497.87971247 1038 495 Z M1055 500 C1053.02 501.98 1051.04 503.96 1049 506 C1049.33 506.66 1049.66 507.32 1050 508 C1051.98 506.02 1053.96 504.04 1056 502 C1055.67 501.34 1055.34 500.68 1055 500 Z M981 504 C981 505.65 981 507.3 981 509 C982.65614657 509.38218767 984.32457024 509.71395102 986 510 C987.29633621 508.93354885 987.29633621 508.93354885 987.0625 506.4375 C987.041875 505.633125 987.02125 504.82875 987 504 C983.95086772 502.98888907 983.95086772 502.98888907 981 504 Z M1033 507 C1031.28628308 510.80648736 1029.57741719 514.61510294 1027.87304688 518.42578125 C1027.29235113 519.72227868 1026.71032542 521.01818127 1026.12695312 522.31347656 C1025.28947601 524.17358729 1024.45677862 526.03577294 1023.625 527.8984375 C1023.12226562 529.01911621 1022.61953125 530.13979492 1022.1015625 531.29443359 C1020.8743034 533.82185547 1020.8743034 533.82185547 1021 536 C1020.21625 536.0825 1019.4325 536.165 1018.625 536.25 C1015.91201618 536.74942394 1015.91201618 536.74942394 1014.5625 538.8125 C1013.8125 541 1013.8125 541 1014.5625 543.1875 C1015.91061128 545.20261983 1015.91061128 545.20261983 1018.4375 545.9375 C1020.97085189 546.21478802 1020.97085189 546.21478802 1022.8125 545 C1024.58800664 542.00967302 1024.1827559 539.4114435 1024 536 C1024 532.58816636 1024.80903464 530.86824185 1026.22265625 527.78125 C1026.67833984 526.76675781 1027.13402344 525.75226562 1027.60351562 524.70703125 C1028.57684281 522.56753561 1029.55341201 520.42951193 1030.53320312 518.29296875 C1030.98759766 517.27847656 1031.44199219 516.26398437 1031.91015625 515.21875 C1032.33433838 514.28998047 1032.75852051 513.36121094 1033.19555664 512.40429688 C1034.30085223 509.90105506 1034.30085223 509.90105506 1033 507 Z M792 510 C792 510.99 792 511.98 792 513 C792.99 512.67 793.98 512.34 795 512 C794.67 511.34 794.34 510.68 794 510 C793.34 510 792.68 510 792 510 Z M1046 510 C1043.69 512.31 1041.38 514.62 1039 517 C1039.33 517.66 1039.66 518.32 1040 519 C1042.31 516.69 1044.62 514.38 1047 512 C1046.67 511.34 1046.34 510.68 1046 510 Z M-51 512 C-51 512.66 -51 513.32 -51 514 C-50.34 513.67 -49.68 513.34 -49 513 C-49.66 512.67 -50.32 512.34 -51 512 Z M933 513 C933 513.99 933 514.98 933 516 C933.99 516 934.98 516 936 516 C935.67 515.01 935.34 514.02 935 513 C934.34 513 933.68 513 933 513 Z M-47 516 C-41.61359076 522.55377097 -35.64114873 528.47246635 -29.625 534.4375 C-28.59221405 535.46525983 -27.55966009 536.49325285 -26.52734375 537.52148438 C-24.02089713 540.01701598 -21.5113292 542.50938082 -19 545 C-18.34 544.67 -17.68 544.34 -17 544 C-20.94465617 540.00602615 -24.89574554 536.01857403 -28.85302734 532.03710938 C-30.19923329 530.68082557 -31.54364149 529.32275497 -32.88623047 527.96289062 C-34.81271716 526.01223399 -36.74550883 524.06802606 -38.6796875 522.125 C-39.28183075 521.51253418 -39.883974 520.90006836 -40.50436401 520.26904297 C-41.96543501 518.80757815 -43.47828173 517.39820649 -45 516 C-45.66 516 -46.32 516 -47 516 Z M355 516 C356 519 356 519 356 519 Z M1037 520 C1035.02 521.98 1033.04 523.96 1031 526 C1031.33 526.66 1031.66 527.32 1032 528 C1033.98 526.02 1035.96 524.04 1038 522 C1037.67 521.34 1037.34 520.68 1037 520 Z M115 528 C112.74837398 530.75471394 112.74837398 530.75471394 113.0625 533.5625 C113.371875 534.366875 113.68125 535.17125 114 536 C114.76658936 536.19126465 115.53317871 536.3825293 116.32299805 536.57958984 C120.6128677 538.85578333 121.25733593 542.72951541 122.76953125 547.1640625 C123.09539719 548.07127045 123.42126312 548.97847839 123.75700378 549.91317749 C124.79334568 552.81113143 125.80310674 555.71756335 126.8125 558.625 C127.51063873 560.59176116 128.21048826 562.55791595 128.91210938 564.5234375 C130.62800096 569.34214767 132.32011306 574.16862618 134 579 C135.40487478 574.78537566 133.75869312 571.90897033 132.25390625 567.9296875 C131.65794594 566.29436454 131.06225143 564.65894469 130.46679688 563.0234375 C129.51922147 560.45448791 128.56711341 557.88735283 127.60913086 555.32226562 C126.6865675 552.84163256 125.78200131 550.35496233 124.87890625 547.8671875 C124.59141006 547.1137204 124.30391388 546.3602533 124.00770569 545.58395386 C122.29249651 540.82945918 121.7545216 536.90724941 122.09410095 531.85232544 C122.19466293 529.74778276 122.19466293 529.74778276 120 528 C117.5 527.58333333 117.5 527.58333333 115 528 Z M1030 528 C1028.35 529.65 1026.7 531.3 1025 533 C1025.33 533.66 1025.66 534.32 1026 535 C1027.65 533.35 1029.3 531.7 1031 530 C1030.67 529.34 1030.34 528.68 1030 528 Z M1066 535 C1065.34 535.66 1064.68 536.32 1064 537 C1064.08571661 539.09291157 1064.08571661 539.09291157 1065 541 C1065.99 541.33 1066.98 541.66 1068 542 C1068.99 541.01 1069.98 540.02 1071 539 C1070.34 537.68 1069.68 536.36 1069 535 C1068.01 535 1067.02 535 1066 535 Z M-16 546 C-14.35 547.65 -12.7 549.3 -11 551 C-11.79117904 549.00016466 -11.79117904 549.00016466 -13 547 C-13.99 546.67 -14.98 546.34 -16 546 Z M178 549 C177.67 550.65 177.34 552.3 177 554 C179.475 554.495 179.475 554.495 182 555 C182.33 553.35 182.66 551.7 183 550 C181.35 549.67 179.7 549.34 178 549 Z M586 549 C585.34 550.32 584.68 551.64 584 553 C584.99 553.99 585.98 554.98 587 556 C588.32 555.34 589.64 554.68 591 554 C590.67 552.68 590.34 551.36 590 550 C588.68 549.67 587.36 549.34 586 549 Z M148 551 C147.67 552.65 147.34 554.3 147 556 C148.32 556 149.64 556 151 556 C151 554.68 151 553.36 151 552 C150.01 551.67 149.02 551.34 148 551 Z M-9 553 C-8.34 553.66 -7.68 554.32 -7 555 C-7 554.34 -7 553.68 -7 553 C-7.66 553 -8.32 553 -9 553 Z M702 554 C700.89163577 555.88316159 700.89163577 555.88316159 700 558 C700.33 558.66 700.66 559.32 701 560 C702.65 559.67 704.3 559.34 706 559 C705.67 557.35 705.34 555.7 705 554 C704.01 554 703.02 554 702 554 Z M1008 554 C1008 554.99 1008 555.98 1008 557 C1008.99 557 1009.98 557 1011 557 C1011 556.01 1011 555.02 1011 554 C1010.01 554 1009.02 554 1008 554 Z M-7 555 C-6.34 555.66 -5.68 556.32 -5 557 C-5 556.34 -5 555.68 -5 555 C-5.66 555 -6.32 555 -7 555 Z M787 561 C787 562.32 787 563.64 787 565 C787.66 564.67 788.32 564.34 789 564 C788.67 563.01 788.34 562.02 788 561 C787.67 561 787.34 561 787 561 Z M11 562 C10.67 562.99 10.34 563.98 10 565 C10.99 565 11.98 565 13 565 C12.67 564.01 12.34 563.02 12 562 C11.67 562 11.34 562 11 562 Z M2 564 C2.804375 565.03125 3.60875 566.0625 4.4375 567.125 C6.37881894 569.79093381 6.99231171 570.94906509 7.5 574.3125 C7.665 575.199375 7.83 576.08625 8 577 C10.29164947 578.65022176 10.29164947 578.65022176 13 579 C13.99 578.34 14.98 577.68 16 577 C17.88954163 577.09263611 17.88954163 577.09263611 20.13696289 577.60913086 C21.03005157 577.81158417 21.92314026 578.01403748 22.84329224 578.22262573 C23.8850058 578.47915924 24.92671936 578.73569275 26 579 C27.81647537 579.44607101 27.81647537 579.44607101 29.66964722 579.90115356 C34.05590603 580.99319378 38.43208452 582.12355138 42.80859375 583.25390625 C44.45917406 583.67812377 46.1098153 584.10210433 47.76051331 584.52586365 C52.10907756 585.64288039 56.45681642 586.76307696 60.80438232 587.88397217 C65.09761744 588.9902955 69.39161246 590.09366021 73.68554688 591.19726562 C100.19420523 598.01258462 100.19420523 598.01258462 111.72969341 601.00161457 C115.01098541 601.85160991 118.29272188 602.69988115 121.57451057 603.54795647 C123.12106124 603.94815225 124.66738426 604.34922884 126.21346855 604.75122261 C128.33325192 605.30235617 130.45376369 605.8505963 132.57446289 606.39819336 C133.77212784 606.7088121 134.96979279 607.01943085 136.20375061 607.33946228 C138.8455372 608.07663186 138.8455372 608.07663186 141 608 C141.2165625 608.9590625 141.2165625 608.9590625 141.4375 609.9375 C141.81007181 611.97545146 141.81007181 611.97545146 143 613 C145.87205324 613.30232139 147.43911421 613.37392386 149.875 611.75 C151.18025253 610.06634295 151.18025253 610.06634295 151 608 C150.12591018 605.76816869 150.12591018 605.76816869 147.59106445 604.72143555 C144.38775194 602.59323838 143.81536938 601.04634049 142.54296875 597.45703125 C142.15302734 596.38388672 141.76308594 595.31074219 141.36132812 594.20507812 C140.97396484 593.08552734 140.58660156 591.96597656 140.1875 590.8125 C139.78080078 589.68134766 139.37410156 588.55019531 138.95507812 587.38476562 C137.95451457 584.59495902 136.97027833 581.80045354 136 579 C134.76635968 582.70092097 135.40049911 583.90298972 136.65234375 587.54296875 C136.97968506 588.51000732 137.30702637 589.4770459 137.64428711 590.47338867 C138.07104736 591.69904541 138.49780762 592.92470215 138.9375 594.1875 C139.66280362 596.29446686 140.38745294 598.40165903 141.11157227 600.5090332 C141.46800308 601.54542435 141.8244339 602.58181549 142.19166565 603.64961243 C142.45841599 604.42524033 142.72516632 605.20086823 143 606 C124.91018201 601.93271838 106.93862538 597.49900947 89 592.8125 C85.19988049 591.82131059 81.39969428 590.83037734 77.5994873 589.83952332 C75.06395097 589.17827069 72.5285494 588.51650109 69.99328613 587.85420227 C63.02730677 586.03735237 56.05539829 584.24801107 49.07250977 582.49726868 C45.12671567 581.50754182 41.18382975 580.50653235 37.24121094 579.50424194 C35.42428549 579.04574256 33.60592452 578.59289211 31.78613281 578.14590454 C29.30139777 577.53498709 26.82238045 576.90468597 24.34375 576.26953125 C23.61957886 576.09719971 22.89540771 575.92486816 22.14929199 575.74731445 C17.28213237 574.47005504 17.28213237 574.47005504 15.75195312 571.9206543 C15.50380859 571.28683838 15.25566406 570.65302246 15 570 C12.67328146 569.31060191 10.33932406 568.64533078 8 568 C5.6875 565.875 5.6875 565.875 4 564 C3.34 564 2.68 564 2 564 Z M97 570 C96.01 571.485 96.01 571.485 95 573 C95.99 573.99 96.98 574.98 98 576 C98.99 575.34 99.98 574.68 101 574 C101 573.01 101 572.02 101 571 C99.68 570.67 98.36 570.34 97 570 Z M326 574 C324.70366379 575.06645115 324.70366379 575.06645115 324.9375 577.5625 C324.958125 578.366875 324.97875 579.17125 325 580 C326.89179203 580.6814823 326.89179203 580.6814823 329 581 C329.66 580.34 330.32 579.68 331 579 C330.67958603 576.39719432 330.67958603 576.39719432 330 574 C328.68 574 327.36 574 326 574 Z M374 582 C374 582.99 374 583.98 374 585 C374.99 584.67 375.98 584.34 377 584 C376.67 583.34 376.34 582.68 376 582 C375.34 582 374.68 582 374 582 Z M238 595 C237.67 595.99 237.34 596.98 237 598 C237.33 598.66 237.66 599.32 238 600 C239.65 599.67 241.3 599.34 243 599 C242.67 597.68 242.34 596.36 242 595 C240.68 595 239.36 595 238 595 Z M1 599 C-0.10836423 600.88316159 -0.10836423 600.88316159 -1 603 C-0.67 603.66 -0.34 604.32 0 605 C1.65 605 3.3 605 5 605 C6.01111093 601.95086772 6.01111093 601.95086772 5 599 C3.68 599 2.36 599 1 599 Z M783 604 C783 604.66 783 605.32 783 606 C783.99 606 784.98 606 786 606 C786 605.34 786 604.68 786 604 C785.01 604 784.02 604 783 604 Z M174 605 C173.67 606.32 173.34 607.64 173 609 C174.32 608.67 175.64 608.34 177 608 C176.67 607.01 176.34 606.02 176 605 C175.34 605 174.68 605 174 605 Z M1122 618 C1121.67 619.65 1121.34 621.3 1121 623 C1122.94603274 623.59070014 1122.94603274 623.59070014 1125 624 C1126.29633621 622.93354885 1126.29633621 622.93354885 1126.0625 620.4375 C1126.041875 619.633125 1126.02125 618.82875 1126 618 C1124.68 618 1123.36 618 1122 618 Z M752 632 C751.67 633.32 751.34 634.64 751 636 C752.32 635.67 753.64 635.34 755 635 C754.67 634.01 754.34 633.02 754 632 C753.34 632 752.68 632 752 632 Z M1086 633 C1085.01 634.485 1085.01 634.485 1084 636 C1084.33 636.66 1084.66 637.32 1085 638 C1086.32 637.67 1087.64 637.34 1089 637 C1088.67 635.68 1088.34 634.36 1088 633 C1087.34 633 1086.68 633 1086 633 Z M1090.875 655.5 C1088.71658191 656.91903065 1088.71658191 656.91903065 1088.265625 659.8515625 C1086.61338024 663.96177632 1084.73587111 664.82134515 1080.875 666.875 C1079.77929688 667.47054687 1078.68359375 668.06609375 1077.5546875 668.6796875 C1076.71164062 669.11539063 1075.86859375 669.55109375 1075 670 C1075.99 670.495 1075.99 670.495 1077 671 C1079.16254302 669.89070099 1081.22946944 668.74380737 1083.3125 667.5 C1089.35246696 663.9187197 1089.35246696 663.9187197 1092.80078125 664.3515625 C1093.52652344 664.56554687 1094.25226563 664.77953125 1095 665 C1097 664 1097 664 1098 662 C1098.08024658 659.40110217 1098.08024658 659.40110217 1097 657 C1094.7207243 655.19229858 1093.71827638 654.83099379 1090.875 655.5 Z M229 659 C229 659.99 229 660.98 229 662 C229.99 662 230.98 662 232 662 C232 661.01 232 660.02 232 659 C231.01 659 230.02 659 229 659 Z M1073 671 C1070.37612865 672.39092892 1070.37612865 672.39092892 1068 674 C1068.99 674.495 1068.99 674.495 1070 675 C1072.62387135 673.60907108 1072.62387135 673.60907108 1075 672 C1074.34 671.67 1073.68 671.34 1073 671 Z M10 673 C9.01 673.99 8.02 674.98 7 676 C7.66 677.32 8.32 678.64 9 680 C10.32 679.67 11.64 679.34 13 679 C13.33 677.68 13.66 676.36 14 675 C12.68 674.34 11.36 673.68 10 673 Z M640 673 C639.01 673.99 638.02 674.98 637 676 C637.66 677.32 638.32 678.64 639 680 C640.32 679.67 641.64 679.34 643 679 C643.33 677.68 643.66 676.36 644 675 C642.68 674.34 641.36 673.68 640 673 Z M1066 675 C1063.37612865 676.39092892 1063.37612865 676.39092892 1061 678 C1061.99 678.495 1061.99 678.495 1063 679 C1065.62387135 677.60907108 1065.62387135 677.60907108 1068 676 C1067.34 675.67 1066.68 675.34 1066 675 Z M1059 679 C1057.8553125 679.495 1057.8553125 679.495 1056.6875 680 C1053.61543898 681.14309247 1052.10008821 680.88573949 1049 680 C1048.34 681.32 1047.68 682.64 1047 684 C1045.85942139 683.99476318 1044.71884277 683.98952637 1043.54370117 683.98413086 C1015.79970931 683.87026821 988.06893262 684.05354138 960.32803345 684.42935181 C931.43605221 684.81910134 902.54356486 685.14826364 873.64889526 685.23217773 C870.22900273 685.24248402 866.80926099 685.25985564 863.38943481 685.28344727 C859.40308758 685.31053164 855.41696545 685.32314938 851.43052864 685.32407379 C849.97077667 685.32674755 848.51102405 685.33449006 847.05132866 685.3476181 C845.06488787 685.36452927 843.07830431 685.36105229 841.09179688 685.35644531 C839.98090698 685.36009094 838.87001709 685.36373657 837.72546387 685.36749268 C834.62704518 684.94971199 833.98907061 684.27914736 832 682 C828.65807308 682.24453124 827.39456443 682.60543557 825 685 C825.28983269 688.30683466 825.28983269 688.30683466 827 691 C830.37341134 691.56223522 833.57770311 692 837 692 C836.01 690.68 835.02 689.36 834 688 C835.01357323 688.00343666 835.01357323 688.00343666 836.04762268 688.00694275 C854.16123098 688.05929723 872.26542869 687.89839359 890.37683105 687.62960815 C925.99995744 687.10258658 961.6244776 686.75576321 997.25 686.4375 C999.11031923 686.4208473 999.11031923 686.4208473 1001.00822067 686.40385818 C1016.33879213 686.26673204 1031.66938388 686.13203593 1047 686 C1047.33 686.99 1047.66 687.98 1048 689 C1050.91634129 689.2502157 1050.91634129 689.2502157 1054 689 C1056.36980013 686.04622502 1056.36980013 686.04622502 1056 682 C1058.475 681.01 1058.475 681.01 1061 680 C1060.01 679.505 1060.01 679.505 1059 679 Z M838 694 C840.68058098 697.57410797 843.42589203 700.31941902 847 703 C847.66 702.67 848.32 702.34 849 702 C847.54712339 700.66072279 846.08752741 699.32873153 844.625 698 C843.81289063 697.2575 843.00078125 696.515 842.1640625 695.75 C840.20466008 693.79040187 840.20466008 693.79040187 838 694 Z M1022 697 C1021.67 698.65 1021.34 700.3 1021 702 C1022.98 702.99 1022.98 702.99 1025 704 C1025.66 703.34 1026.32 702.68 1027 702 C1026.6814823 699.89179203 1026.6814823 699.89179203 1026 698 C1024.68 697.67 1023.36 697.34 1022 697 Z M810 702 C810.33 703.65 810.66 705.3 811 707 C812.65 707.33 814.3 707.66 816 708 C816.67958603 705.60280568 816.67958603 705.60280568 817 703 C816.34 702.34 815.68 701.68 815 701 C812.0745356 700.7763932 812.0745356 700.7763932 810 702 Z M1061 702 C1061.33 703.32 1061.66 704.64 1062 706 C1062.99 705.67 1063.98 705.34 1065 705 C1065 704.01 1065 703.02 1065 702 C1063.68 702 1062.36 702 1061 702 Z M849 703 C850.32 704.65 851.64 706.3 853 708 C853.66 707.67 854.32 707.34 855 707 C853.71034824 705.62437146 852.37310707 704.29233607 851 703 C850.34 703 849.68 703 849 703 Z M855 708 C855.99 709.485 855.99 709.485 857 711 C857.66 710.67 858.32 710.34 859 710 C857.68 709.34 856.36 708.68 855 708 Z M663 711 C662.67 711.66 662.34 712.32 662 713 C662.99 712.67 663.98 712.34 665 712 C664.34 711.67 663.68 711.34 663 711 Z M859 711 C858.83318891 713.91652174 858.83318891 713.91652174 859 717 C860.83883881 719.28728734 860.83883881 719.28728734 863.625 719.125 C864.40875 719.08375 865.1925 719.0425 866 719 C867.19838209 716.67145537 867.19838209 716.67145537 868 714 C867.34 713.01 866.68 712.02 866 711 C862.41642759 710.74984127 862.41642759 710.74984127 859 711 Z M78 712 C77.34 713.65 76.68 715.3 76 717 C76.66 717.66 77.32 718.32 78 719 C80.10820797 718.6814823 80.10820797 718.6814823 82 718 C82.6814823 716.10820797 82.6814823 716.10820797 83 714 C82.34 713.34 81.68 712.68 81 712 C80.01 712 79.02 712 78 712 Z M748 716 C747.34 716.66 746.68 717.32 746 718 C746.32041397 720.60280568 746.32041397 720.60280568 747 723 C748.65 722.67 750.3 722.34 752 722 C751.67 720.35 751.34 718.7 751 717 C750.01 716.67 749.02 716.34 748 716 Z M693 725 C693 726.32 693 727.64 693 729 C693.99 728.67 694.98 728.34 696 728 C696 727.01 696 726.02 696 725 C695.01 725 694.02 725 693 725 Z M759 733 C758.34 733.66 757.68 734.32 757 735 C757.3185177 737.10820797 757.3185177 737.10820797 758 739 C759.89179203 739.6814823 759.89179203 739.6814823 762 740 C762.66 739.34 763.32 738.68 764 738 C763.6814823 735.89179203 763.6814823 735.89179203 763 734 C761.10820797 733.3185177 761.10820797 733.3185177 759 733 Z M-35 743 C-35.33 743.99 -35.66 744.98 -36 746 C-34.68 746 -33.36 746 -32 746 C-32.33 745.01 -32.66 744.02 -33 743 C-33.66 743 -34.32 743 -35 743 Z M1081 756 C1080.67 756.99 1080.34 757.98 1080 759 C1080.33 759.66 1080.66 760.32 1081 761 C1082.32 760.67 1083.64 760.34 1085 760 C1085 758.68 1085 757.36 1085 756 C1083.68 756 1082.36 756 1081 756 Z M1051 758 C1050.34 758.66 1049.68 759.32 1049 760 C1049.08571661 762.09291157 1049.08571661 762.09291157 1050 764 C1050.99 764.33 1051.98 764.66 1053 765 C1053.99 764.01 1054.98 763.02 1056 762 C1055.67 761.01 1055.34 760.02 1055 759 C1053.09291157 758.08571661 1053.09291157 758.08571661 1051 758 Z " fill="#000000" transform="translate(107,0)"/>
<path d="M0 0 C5.87417515 0.50532664 11.42335647 1.72389757 17.12231445 3.19311523 C18.43357048 3.52501358 18.43357048 3.52501358 19.77131653 3.86361694 C22.63658877 4.59033033 25.499978 5.32416393 28.36328125 6.05859375 C30.36241624 6.56829971 32.36161876 7.07774087 34.36088562 7.58692932 C38.53838233 8.65212588 42.71493417 9.72093419 46.89086914 10.79223633 C52.24687289 12.16590024 57.60529456 13.52985499 62.96447468 14.89106655 C67.08754776 15.93955634 71.20922095 16.99346432 75.33049583 18.04899788 C77.30644289 18.55431 79.28284356 19.05785175 81.25969887 19.55959892 C84.01614353 20.26001065 86.77059965 20.9677631 89.5246582 21.67749023 C90.34287048 21.88379562 91.16108276 22.09010101 92.00408936 22.30265808 C95.44425329 23.19651438 98.01614317 24.01076211 101 26 C84.61419591 26.05472288 68.24179651 25.92480762 51.859375 25.59765625 C49.66506102 25.55512812 47.47074539 25.51268509 45.27642822 25.47032166 C40.73893718 25.3820809 36.20148971 25.291901 31.6640625 25.20043945 C25.85296 25.08359975 20.04175311 24.97324501 14.23049545 24.86443424 C9.72664121 24.77915533 5.22287499 24.6897878 0.71912384 24.59924126 C-1.4258521 24.55674621 -3.57085706 24.51569069 -5.71588898 24.4761219 C-8.69383436 24.42072731 -11.67161112 24.35964868 -14.64941406 24.29711914 C-15.96614609 24.27445984 -15.96614609 24.27445984 -17.30947876 24.25134277 C-21.32236486 24.16140178 -25.08350982 23.98430127 -29 23 C-27.37191763 18.64801058 -24.12112494 16.08293744 -20.75 13.0625 C-20.18925781 12.55009766 -19.62851562 12.03769531 -19.05078125 11.50976562 C-17.38001762 9.99141577 -15.69305515 8.49341996 -14 7 C-13.19526245 6.27417725 -13.19526245 6.27417725 -12.37426758 5.53369141 C-8.59016367 2.21629958 -6.01964932 1.39369799 -1 1 C-0.67 0.67 -0.34 0.34 0 0 Z " fill="#000000" transform="translate(420,170)"/>
<path d="M0 0 C7.38731185 0.55105763 14.57794644 1.51208198 21.84765625 2.92578125 C22.8261705 3.11464401 23.80468475 3.30350677 24.81285095 3.49809265 C26.85786972 3.89585929 28.90226648 4.29683651 30.94604492 4.70092773 C34.08282741 5.31648905 37.22369991 5.90728294 40.36523438 6.49804688 C42.35967253 6.88911063 44.35382482 7.28163577 46.34765625 7.67578125 C47.7568911 7.93540398 47.7568911 7.93540398 49.19459534 8.20027161 C50.0598735 8.37692856 50.92515167 8.55358551 51.81665039 8.7355957 C52.57845108 8.88358109 53.34025177 9.03156647 54.12513733 9.18403625 C56 10 56 10 57.26821899 11.95477295 C59.56420463 18.37173635 54.48556732 27.56406799 52.1875 33.5625 C51.80730713 34.56667969 51.42711426 35.57085937 51.03540039 36.60546875 C45.60056875 50.83266452 39.78809185 64.91380483 34 79 C33.01 79 32.02 79 31 79 C24.63714349 64.3703962 18.57829824 49.63781986 12.6875 34.8125 C11.89543148 32.82477048 11.10311443 30.83713997 10.31054688 28.84960938 C6.71436861 19.82926397 6.71436861 19.82926397 4.99447632 15.48477173 C4.29493786 13.73692378 3.58268465 11.99413748 2.86123657 10.25521851 C2.4942868 9.3649295 2.12733704 8.4746405 1.74926758 7.55737305 C1.24669182 6.35385445 1.24669182 6.35385445 0.73396301 5.12602234 C0 3 0 3 0 0 Z " fill="#000000" transform="translate(915,474)"/>
<path d="M0 0 C7.19454038 -0.16318096 14.10279513 0.46876182 21.23828125 1.35546875 C23.00708145 1.5684964 23.00708145 1.5684964 24.81161499 1.78582764 C28.64582191 2.24840431 32.47913067 2.71803786 36.3125 3.1875 C38.95605684 3.50727077 41.59966559 3.82655047 44.2434082 4.14477539 C44.90310325 4.22418586 45.56279829 4.30359632 46.24248409 4.38541317 C47.57841109 4.54619474 48.91434192 4.70694446 50.25027657 4.86766243 C52.26089697 5.10974638 54.27143771 5.35248361 56.28196716 5.59532166 C68.74416253 7.09885171 81.21405052 8.53077965 93.6875 9.9375 C95.11045883 10.0982753 95.11045883 10.0982753 96.56216431 10.26229858 C101.70787517 10.84363066 106.85380371 11.42298137 112 12 C112.33 13.32 112.66 14.64 113 16 C112.11699219 16.75023437 111.23398437 17.50046875 110.32421875 18.2734375 C104.5799633 23.16800339 98.86601566 28.07665588 93.3125 33.1875 C88.92644354 37.21393836 84.38258372 40.98109722 79.75 44.71875 C76.91900422 47.06718968 74.20616402 49.50909902 71.5 52 C67.13313271 56.01529746 62.63188173 59.79137958 58.01953125 63.51953125 C50.07922088 70.04229591 42.35188634 76.83699685 34.75 83.75 C31.45707034 86.73863253 28.08683231 89.58383605 24.625 92.375 C20.07219493 96.05571847 15.76582589 99.92648648 11.4831543 103.91137695 C7.37239043 107.71385014 3.07733477 111.24263299 -1.28515625 114.75390625 C-4.10673495 117.0883059 -6.80590712 119.51990598 -9.5 122 C-13.94727112 126.09351091 -18.54717463 129.92442499 -23.25 133.71875 C-26.08099578 136.06718968 -28.79383598 138.50909902 -31.5 141 C-39.28624845 148.15312982 -47.48069924 154.74346719 -56 161 C-54.825474 154.48305581 -53.28162845 148.27617727 -51.14941406 142.01000977 C-50.86924942 141.17053802 -50.58908478 140.33106628 -50.3004303 139.46615601 C-49.37776315 136.70599391 -48.44666817 133.94875303 -47.515625 131.19140625 C-46.8564157 129.22382159 -46.19779794 127.25603866 -45.53973389 125.28807068 C-43.80111865 120.09312352 -42.0556154 114.90051863 -40.30828857 109.70849609 C-37.56399392 101.55047524 -34.82968008 93.38909956 -32.09544373 85.22770309 C-31.41711767 83.20316622 -30.73853888 81.17871401 -30.05970764 79.15434647 C-23.63002454 59.9757623 -17.3489696 40.75056042 -11.11627579 21.50719166 C-9.11198008 15.32646738 -7.07176979 9.15847789 -5 3 C-3.35 2.67 -1.7 2.34 0 2 C0 1.34 0 0.68 0 0 Z M22 48 C22.33 48.99 22.66 49.98 23 51 C23.66 50.67 24.32 50.34 25 50 C25 49.34 25 48.68 25 48 C24.01 48 23.02 48 22 48 Z " fill="#000000" transform="translate(574,493)"/>
<path d="M0 0 C2.83562478 2.83562478 4.80770785 4.96694961 6.953125 8.1953125 C7.48550781 8.98808594 8.01789062 9.78085937 8.56640625 10.59765625 C9.12199219 11.43167969 9.67757813 12.26570312 10.25 13.125 C15.37447886 20.74651253 15.37447886 20.74651253 21 28 C24.70124834 32.46943195 27.93620284 37.20008 31.1875 42 C38.82723535 53.27649278 46.76826304 64.31545058 54.89453125 75.24609375 C55.537854 76.11298828 56.18117676 76.97988281 56.84399414 77.87304688 C58.09065468 79.55037777 59.34099956 81.22497818 60.59545898 82.89648438 C61.15692627 83.65123047 61.71839355 84.40597656 62.296875 85.18359375 C62.79541992 85.84931396 63.29396484 86.51503418 63.80761719 87.20092773 C65 89 65 89 66 92 C44.22 92 22.44 92 0 92 C0 61.64 0 31.28 0 0 Z " fill="#000000" transform="translate(0,676)"/>
<path d="M0 0 C0.66 0.33 1.32 0.66 2 1 C0.71002926 5.37550186 -0.58227498 9.75031117 -1.875 14.125 C-2.23980469 15.3625 -2.60460937 16.6 -2.98046875 17.875 C-3.33496094 19.07382812 -3.68945312 20.27265625 -4.0546875 21.5078125 C-4.37937012 22.60754395 -4.70405273 23.70727539 -5.03857422 24.84033203 C-5.97267483 27.91019747 -6.98527749 30.95583246 -8 34 C-17.9 34 -27.8 34 -38 34 C-37.34 33.01 -36.68 32.02 -36 31 C-35.80792969 30.08605469 -35.61585938 29.17210937 -35.41796875 28.23046875 C-33.28872957 23.37955744 -29.58950493 21.26957495 -25.3125 18.3125 C-23.59370862 17.08729764 -21.8749592 15.8620364 -20.15625 14.63671875 C-19.29386719 14.03005371 -18.43148438 13.42338867 -17.54296875 12.79833984 C-13.76200648 10.12451418 -10.03827565 7.37490112 -6.3125 4.625 C-5.07981533 3.72082463 -3.84678332 2.81712244 -2.61328125 1.9140625 C-1.31970703 0.96660156 -1.31970703 0.96660156 0 0 Z " fill="#000000" transform="translate(363,734)"/>
</svg>
